<svg xmlns="http://www.w3.org/2000/svg" xmlns:xlink="http://www.w3.org/1999/xlink" version="1.1" width="612.95498pt" height="284.3225pt" viewBox="0 0 612.95498 284.3225">
<path transform="matrix(1,0,0,-1,.47750093,1.4442749)" stroke-width=".797" stroke-linecap="butt" stroke-miterlimit="10" stroke-linejoin="miter" fill="none" stroke="#000000" d="M0 0H612"/>
<text xml:space="preserve" transform="matrix(1 0 -0 1 -114.4675 1000.38729)" font-size="9.9626" font-family="CMBX10" font-weight="bold"><tspan y="-989.634" x="122.417 131.0745 134.25257 139.98107 145.70957 150.43184 153.60991 158.06319 164.42929 173.97347 183.03943 192.59357">Algorithme2:</tspan></text>
<text xml:space="preserve" transform="matrix(1 0 -0 1 -114.4675 1000.38729)" font-size="9.9626" font-family="CMR10"><tspan y="-989.634" x="199.108 206.57996 209.34957 214.33086 219.31215 223.21749 225.98709 229.86255 235.40175 243.70059 251.44155 256.98075 264.73167 268.637 273.0604 277.20484 282.74406 287.16746 291.07279 295.21723 300.75645 308.50736 314.03663 316.8062 320.96064 326.49986 331.48115 335.3566 340.3379 348.63676 351.40635 356.6666 362.2058">Algorithmederecherchedichotomique</tspan></text>
<path transform="matrix(1,0,0,-1,.47750093,15.081238)" stroke-width=".797" stroke-linecap="butt" stroke-miterlimit="10" stroke-linejoin="miter" fill="none" stroke="#000000" d="M0 0H612"/>
<text xml:space="preserve" transform="matrix(1 0 -0 1 -114.4675 1000.38729)" font-size="9.9626" font-family="CMBX10" font-weight="bold"><tspan y="-975.996" x="129.889 138.67603 144.40453 150.77063 156.89763 157.13674 162.38703 167.63732 175.97602">Donn&#x00b4;ees:</tspan></text>
<text xml:space="preserve" transform="matrix(1 0 -0 1 -114.4675 1000.38729)" font-size="9.9626" font-family="CMR10"><tspan y="-975.996" x="182.477 186.35247 191.33376 200.1905 206.28763 212.64377 217.62506 223.16426 225.93387 230.35727 235.33856 244.20528 249.74448 252.51409 256.93748 262.19773 266.07319 268.84278 273.26618 277.1715 284.4143 288.8377 291.6073 296.5886 300.51387 304.16017 304.4391 308.8625 314.9596 319.66197 324.64326 330.73039 336.82749 343.61204 348.87229 352.74775 355.51734 359.94075 367.1636 367.1636 375.46244 379.36778 383.79118 387.9456 393.4848 397.9082 401.81355 405.95799 411.4972 415.9206">tab:Tableaud&#x2019;entiersclass&#x00b4;e,val:Entier`arechercher</tspan></text>
<text xml:space="preserve" transform="matrix(1 0 -0 1 -114.4675 1000.38729)" font-size="9.9626" font-family="CMBX10" font-weight="bold"><tspan y="-964.04098" x="129.889 138.24762 138.48673 143.73702 148.26004 154.62615 157.80422 162.25749 167.82659 176.09554">R&#x00b4;esultat:</tspan></text>
<text xml:space="preserve" transform="matrix(1 0 -0 1 -114.4675 1000.38729)" font-size="9.9626" font-family="CMR10"><tspan y="-964.04098" x="182.602 189.10759 194.08889 198.01415 200.78376 204.65921 207.42882 212.41011 221.26686 226.80606 234.55698 239.25933 244.24062 250.33774 255.87694 260.85826 266.3875 273.6403 276.40989 284.15083 288.02629 293.00758 298.54679 301.31639 305.73979 310.72108 319.57783 326.7808 330.70606 336.79319 340.66865 344.57398 349.55528 355.09449 360.07579 360.3547 364.7781 370.86524 374.7905 377.5601 383.0993 388.0806 396.94734 399.71693 405.25614 410.79536 413.56495 418.8252 424.3644 432.10536 437.3656 442.90483 450.64576 455.35807 460.33937 466.42649 471.9657 474.7353 479.1587 483.08396 490.27696 495.81617 500.79747 508.05024 513.5894 518.57077 524.1099 531.3528 534.1224 541.86337 545.7388 550.7201 556.2593 559.0289 563.4523 568.4336">Positiondevaldansletableautsitrouv&#x00b4;e,sinonindiquequevaln&#x2019;estpasdansletableau</tspan></text>
<text xml:space="preserve" transform="matrix(1 0 -0 1 -114.4675 1000.38729)" font-size="6.9738" font-family="CMBX7" font-weight="bold"><tspan y="-952.08596" x="120.394008">1</tspan></text>
<text xml:space="preserve" transform="matrix(1 0 -0 1 -114.4675 1000.38729)" font-size="9.9626" font-family="CMBX10" font-weight="bold"><tspan y="-952.08596" x="129.889 136.14553 141.87403 148.24013 153.33103 157.7843 160.96237 166.69087">Fonction</tspan></text>
<text xml:space="preserve" transform="matrix(1 0 -0 1 -114.4675 1000.38729)" font-size="9.9626" font-family="CMR10"><tspan y="-952.08596" x="176.38101 183.71349 188.13689 192.28134">Rech</tspan></text>
<path transform="matrix(1,0,0,-1,83.958499,48.102296)" stroke-width=".398" stroke-linecap="butt" stroke-miterlimit="10" stroke-linejoin="miter" fill="none" stroke="#000000" d="M0 0H2.989"/>
<text xml:space="preserve" transform="matrix(1 0 -0 1 -114.4675 1000.38729)" font-size="9.9626" font-family="CMR10"><tspan y="-952.086" x="201.415 206.9542 209.7238 214.1472 218.02266 221.89812 226.87941 232.41861 238.50577 243.21808 248.19937 250.96898">dic(tab,val)</tspan></text>
<text xml:space="preserve" transform="matrix(1 0 -0 1 -114.4675 1000.38729)" font-size="6.9738" font-family="CMBX7" font-weight="bold"><tspan y="-940.131" x="120.39399">2</tspan></text>
<text xml:space="preserve" transform="matrix(1 0 -0 1 -114.4675 1000.38729)" font-size="9.9626" font-family="CMR10"><tspan y="-940.131" x="129.88899">N</tspan></text>
<text xml:space="preserve" transform="matrix(1 0 -0 1 -114.4675 1000.38729)" font-size="9.9626" font-family="CMSY10" font-style="italic"><tspan y="-940.131" x="140.68199">&#x2190;</tspan></text>
<text xml:space="preserve" transform="matrix(1 0 -0 1 -114.4675 1000.38729)" font-size="9.9626" font-family="CMR10"><tspan y="-940.131" x="153.965 157.84046 162.82175 165.59136 168.36096 171.13057 175.55397 179.42943 183.30489 188.28618 193.82538 201.01839 207.66345">taille(tab)-1</tspan></text>
<text xml:space="preserve" transform="matrix(1 0 -0 1 -114.4675 1000.38729)" font-size="6.9738" font-family="CMBX7" font-weight="bold"><tspan y="-928.175" x="120.394">3</tspan></text>
<text xml:space="preserve" transform="matrix(1 0 -0 1 -114.4675 1000.38729)" font-size="9.9626" font-family="CMR10"><tspan y="-928.175" x="129.88899 135.14925 135.42819 139.8516 145.3908 150.93">d&#x00b4;ebut</tspan></text>
<text xml:space="preserve" transform="matrix(1 0 -0 1 -114.4675 1000.38729)" font-size="9.9626" font-family="CMSY10" font-style="italic"><tspan y="-928.175" x="158.116">&#x2190;</tspan></text>
<text xml:space="preserve" transform="matrix(1 0 -0 1 -114.4675 1000.38729)" font-size="9.9626" font-family="CMR10"><tspan y="-928.175" x="171.4">0</tspan></text>
<text xml:space="preserve" transform="matrix(1 0 -0 1 -114.4675 1000.38729)" font-size="6.9738" font-family="CMBX7" font-weight="bold"><tspan y="-916.22" x="120.394">4</tspan></text>
<text xml:space="preserve" transform="matrix(1 0 -0 1 -114.4675 1000.38729)" font-size="9.9626" font-family="CMR10"><tspan y="-916.22" x="129.88899 132.65361 135.42819">fin</tspan></text>
<text xml:space="preserve" transform="matrix(1 0 -0 1 -114.4675 1000.38729)" font-size="9.9626" font-family="CMSY10" font-style="italic"><tspan y="-916.22" x="144.27899">&#x2190;</tspan></text>
<text xml:space="preserve" transform="matrix(1 0 -0 1 -114.4675 1000.38729)" font-size="9.9626" font-family="CMR10"><tspan y="-916.22" x="157.56299">N</tspan></text>
<text xml:space="preserve" transform="matrix(1 0 -0 1 -114.4675 1000.38729)" font-size="6.9738" font-family="CMBX7" font-weight="bold"><tspan y="-904.26498" x="120.39399">5</tspan></text>
<text xml:space="preserve" transform="matrix(1 0 -0 1 -114.4675 1000.38729)" font-size="9.9626" font-family="CMR10"><tspan y="-904.26498" x="129.88899 133.76445 137.66979 142.65108 148.19028 153.17159 153.45053">trouv&#x00b4;e</tspan></text>
<text xml:space="preserve" transform="matrix(1 0 -0 1 -114.4675 1000.38729)" font-size="9.9626" font-family="CMSY10" font-style="italic"><tspan y="-904.26498" x="161.18799">&#x2190;</tspan></text>
<text xml:space="preserve" transform="matrix(1 0 -0 1 -114.4675 1000.38729)" font-size="9.9626" font-family="CMR10"><tspan y="-904.26498" x="174.47199 177.52054 182.50183 188.04103">faux</tspan></text>
<text xml:space="preserve" transform="matrix(1 0 -0 1 -114.4675 1000.38729)" font-size="6.9738" font-family="CMBX7" font-weight="bold"><tspan y="-892.30996" x="120.39398">6</tspan></text>
<text xml:space="preserve" transform="matrix(1 0 -0 1 -114.4675 1000.38729)" font-size="9.9626" font-family="CMBX10" font-weight="bold"><tspan y="-892.30996" x="129.88898 134.34226 139.91135 145.95865 154.2276 160.2749 166.641">tantque</tspan></text>
<text xml:space="preserve" transform="matrix(1 0 -0 1 -114.4675 1000.38729)" font-size="9.9626" font-family="CMTI10" font-style="italic"><tspan y="-892.30996" x="175.21898 180.81797 185.90885 195.07444 198.38202 202.07816 207.16904 212.51895 216.84272 217.10173 225.24118 229.82398 236.69817 241.54 241.78907 246.37186 250.95465 256.30458">nontrouv&#x00b4;eetd&#x00b4;ebut</tspan></text>
<text xml:space="preserve" transform="matrix(1 0 -0 1 -114.4675 1000.38729)" font-size="9.9626" font-family="CMSY10" font-style="italic"><tspan y="-892.30996" x="263.18299">&#x2264;</tspan></text>
<text xml:space="preserve" transform="matrix(1 0 -0 1 -114.4675 1000.38729)" font-size="9.9626" font-family="CMTI10" font-style="italic"><tspan y="-892.30996" x="274.49598 277.29548 280.09495">fin</tspan></text>
<text xml:space="preserve" transform="matrix(1 0 -0 1 -114.4675 1000.38729)" font-size="9.9626" font-family="CMBX10" font-weight="bold"><tspan y="-892.30996" x="289.78297 293.27986 298.84895 302.027 306.74928">faire</tspan></text>
<path transform="matrix(1,0,0,-1,20.601502,207.3053)" stroke-width=".398" stroke-linecap="butt" stroke-miterlimit="10" stroke-linejoin="miter" fill="none" stroke="#000000" d="M0 0V95.641"/>
<text xml:space="preserve" transform="matrix(1 0 -0 1 -114.4675 1000.38729)" font-size="6.9738" font-family="CMBX7" font-weight="bold"><tspan y="-880.355" x="120.792">7</tspan></text>
<text xml:space="preserve" transform="matrix(1 0 -0 1 -114.4675 1000.38729)" font-size="9.9626" font-family="CMR10"><tspan y="-880.355" x="145.231 153.52985 156.29946">mil</tspan></text>
<text xml:space="preserve" transform="matrix(1 0 -0 1 -114.4675 1000.38729)" font-size="9.9626" font-family="CMSY10" font-style="italic"><tspan y="-880.355" x="162.389">&#x2190;</tspan></text>
<text xml:space="preserve" transform="matrix(1 0 -0 1 -114.4675 1000.38729)" font-size="9.9626" font-family="CMR10"><tspan y="-880.355" x="175.673 181.2122 186.1935 190.09883 193.97429 196.7439">partie</tspan></text>
<path transform="matrix(1,0,0,-1,87.2905,119.83325)" stroke-width=".398" stroke-linecap="butt" stroke-miterlimit="10" stroke-linejoin="miter" fill="none" stroke="#000000" d="M0 0H2.989"/>
<text xml:space="preserve" transform="matrix(1 0 -0 1 -114.4675 1000.38729)" font-size="9.9626" font-family="CMR10"><tspan y="-880.355" x="204.747 209.1704 214.43065 218.3061 220.79677 221.07572 225.49912 229.40445 233.82785 237.70331 241.57877 246.83902 247.11797 251.54137 257.08058 262.61979 269.82276 280.8912 283.65583 286.43043 291.96965 299.16264 307.46147 312.44276">enti`ere((d&#x00b4;ebut+fin)/2)</tspan></text>
<text xml:space="preserve" transform="matrix(1 0 -0 1 -114.4675 1000.38729)" font-size="6.9738" font-family="CMBX7" font-weight="bold"><tspan y="-868.39999" x="120.79199">8</tspan></text>
<text xml:space="preserve" transform="matrix(1 0 -0 1 -114.4675 1000.38729)" font-size="9.9626" font-family="CMBX10" font-weight="bold"><tspan y="-868.39999" x="145.23099 149.75402">si</tspan></text>
<text xml:space="preserve" transform="matrix(1 0 -0 1 -114.4675 1000.38729)" font-size="9.9626" font-family="CMTI10" font-style="italic"><tspan y="-868.39999" x="156.25399 159.56157 164.65247 169.23526 172.29378 180.44318 183.5017 186.05213 192.67725 200.31856 211.51651 216.0993 221.19019">tab[mil]==val</tspan></text>
<text xml:space="preserve" transform="matrix(1 0 -0 1 -114.4675 1000.38729)" font-size="9.9626" font-family="CMBX10" font-weight="bold"><tspan y="-868.39999" x="228.07299 233.64208 236.82015 242.54865 247.27092">alors</tspan></text>
<path transform="matrix(1,0,0,-1,35.944505,147.5293)" stroke-width=".398" stroke-linecap="butt" stroke-miterlimit="10" stroke-linejoin="miter" fill="none" stroke="#000000" d="M0 0V11.955"/>
<text xml:space="preserve" transform="matrix(1 0 -0 1 -114.4675 1000.38729)" font-size="6.9738" font-family="CMBX7" font-weight="bold"><tspan y="-856.444" x="121.191">9</tspan></text>
<text xml:space="preserve" transform="matrix(1 0 -0 1 -114.4675 1000.38729)" font-size="9.9626" font-family="CMR10"><tspan y="-856.444" x="160.574 164.44947 168.3548 173.33609 178.87529 183.8566 184.13555">trouv&#x00b4;e</tspan></text>
<text xml:space="preserve" transform="matrix(1 0 -0 1 -114.4675 1000.38729)" font-size="9.9626" font-family="CMSY10" font-style="italic"><tspan y="-856.444" x="191.873">&#x2190;</tspan></text>
<text xml:space="preserve" transform="matrix(1 0 -0 1 -114.4675 1000.38729)" font-size="9.9626" font-family="CMR10"><tspan y="-856.444" x="205.157 210.41725 214.32259 219.30388">vrai</tspan></text>
<text xml:space="preserve" transform="matrix(1 0 -0 1 -114.4675 1000.38729)" font-size="6.9738" font-family="CMBX7" font-weight="bold"><tspan y="-844.48898" x="116.279 120.791049">10</tspan></text>
<text xml:space="preserve" transform="matrix(1 0 -0 1 -114.4675 1000.38729)" font-size="9.9626" font-family="CMBX10" font-weight="bold"><tspan y="-844.48898" x="145.231 149.75403 152.9321 159.2982 165.0267 175.20848 179.7315">sinonsi</tspan></text>
<text xml:space="preserve" transform="matrix(1 0 -0 1 -114.4675 1000.38729)" font-size="9.9626" font-family="CMTI10" font-style="italic"><tspan y="-844.48898" x="186.233 190.8158 195.90668">val</tspan></text>
<text xml:space="preserve" transform="matrix(1 0 -0 1 -114.4675 1000.38729)" font-size="9.9626" font-family="CMMI10" font-style="italic"><tspan y="-844.48898" x="202.018">&#x003e;</tspan></text>
<text xml:space="preserve" transform="matrix(1 0 -0 1 -114.4675 1000.38729)" font-size="9.9626" font-family="CMTI10" font-style="italic"><tspan y="-844.48898" x="213.33101 216.6386 221.72949 226.31229 229.3708 237.5202 240.57872 243.12915">tab[mil]</tspan></text>
<text xml:space="preserve" transform="matrix(1 0 -0 1 -114.4675 1000.38729)" font-size="9.9626" font-family="CMBX10" font-weight="bold"><tspan y="-844.48898" x="250.544 256.1131 259.29118 265.01966 269.7419">alors</tspan></text>
<path transform="matrix(1,0,0,-1,35.944505,171.43927)" stroke-width=".398" stroke-linecap="butt" stroke-miterlimit="10" stroke-linejoin="miter" fill="none" stroke="#000000" d="M0 0V11.955"/>
<text xml:space="preserve" transform="matrix(1 0 -0 1 -114.4675 1000.38729)" font-size="6.9738" font-family="CMBX7" font-weight="bold"><tspan y="-832.534" x="116.677 121.18905">11</tspan></text>
<text xml:space="preserve" transform="matrix(1 0 -0 1 -114.4675 1000.38729)" font-size="9.9626" font-family="CMR10"><tspan y="-832.534" x="160.574 165.83426 166.1132 170.5366 176.0758 181.615">d&#x00b4;ebut</tspan></text>
<text xml:space="preserve" transform="matrix(1 0 -0 1 -114.4675 1000.38729)" font-size="9.9626" font-family="CMSY10" font-style="italic"><tspan y="-832.534" x="188.80101">&#x2190;</tspan></text>
<text xml:space="preserve" transform="matrix(1 0 -0 1 -114.4675 1000.38729)" font-size="9.9626" font-family="CMR10"><tspan y="-832.534" x="202.085 210.38385 213.15346 219.24062 230.31903">mil+1</tspan></text>
<text xml:space="preserve" transform="matrix(1 0 -0 1 -114.4675 1000.38729)" font-size="6.9738" font-family="CMBX7" font-weight="bold"><tspan y="-820.579" x="116.27901 120.79105">12</tspan></text>
<text xml:space="preserve" transform="matrix(1 0 -0 1 -114.4675 1000.38729)" font-size="9.9626" font-family="CMBX10" font-weight="bold"><tspan y="-820.579" x="145.231 149.75403 152.9321 159.2982 165.0267">sinon</tspan></text>
<path transform="matrix(1,0,0,-1,35.944505,195.35028)" stroke-width=".398" stroke-linecap="butt" stroke-miterlimit="10" stroke-linejoin="miter" fill="none" stroke="#000000" d="M0 0V11.955"/>
<text xml:space="preserve" transform="matrix(1 0 -0 1 -114.4675 1000.38729)" font-size="6.9738" font-family="CMBX7" font-weight="bold"><tspan y="-808.624" x="116.677 121.18905">13</tspan></text>
<text xml:space="preserve" transform="matrix(1 0 -0 1 -114.4675 1000.38729)" font-size="9.9626" font-family="CMR10"><tspan y="-808.624" x="160.574 163.33863 166.1132">fin</tspan></text>
<text xml:space="preserve" transform="matrix(1 0 -0 1 -114.4675 1000.38729)" font-size="9.9626" font-family="CMSY10" font-style="italic"><tspan y="-808.624" x="174.964">&#x2190;</tspan></text>
<text xml:space="preserve" transform="matrix(1 0 -0 1 -114.4675 1000.38729)" font-size="9.9626" font-family="CMR10"><tspan y="-808.624" x="188.248 196.54685 199.31645 205.40361 212.04868">mil-1</tspan></text>
<text xml:space="preserve" transform="matrix(1 0 -0 1 -114.4675 1000.38729)" font-size="6.9738" font-family="CMBX7" font-weight="bold"><tspan y="-796.669" x="116.279 120.791049">14</tspan></text>
<text xml:space="preserve" transform="matrix(1 0 -0 1 -114.4675 1000.38729)" font-size="9.9626" font-family="CMBX10" font-weight="bold"><tspan y="-796.669" x="145.231 148.40908 151.5971">fin</tspan></text>
<text xml:space="preserve" transform="matrix(1 0 -0 1 -114.4675 1000.38729)" font-size="6.9738" font-family="CMBX7" font-weight="bold"><tspan y="-783.717" x="115.880008 120.39205">15</tspan></text>
<text xml:space="preserve" transform="matrix(1 0 -0 1 -114.4675 1000.38729)" font-size="9.9626" font-family="CMBX10" font-weight="bold"><tspan y="-783.717" x="129.889 133.06708 136.25511">fin</tspan></text>
<text xml:space="preserve" transform="matrix(1 0 -0 1 -114.4675 1000.38729)" font-size="6.9738" font-family="CMBX7" font-weight="bold"><tspan y="-771.76199" x="115.880008 120.39205">16</tspan></text>
<text xml:space="preserve" transform="matrix(1 0 -0 1 -114.4675 1000.38729)" font-size="9.9626" font-family="CMBX10" font-weight="bold"><tspan y="-771.76199" x="129.889 134.41204">si</tspan></text>
<text xml:space="preserve" transform="matrix(1 0 -0 1 -114.4675 1000.38729)" font-size="9.9626" font-family="CMTI10" font-style="italic"><tspan y="-771.76199" x="140.91101 144.2186 147.91474 153.00562 158.35553 162.67929 162.93831">trouv&#x00b4;e</tspan></text>
<text xml:space="preserve" transform="matrix(1 0 -0 1 -114.4675 1000.38729)" font-size="9.9626" font-family="CMBX10" font-weight="bold"><tspan y="-771.76199" x="171.58602 177.1551 180.33318 186.06168 190.78395">alors</tspan></text>
<path transform="matrix(1,0,0,-1,20.601502,244.1673)" stroke-width=".398" stroke-linecap="butt" stroke-miterlimit="10" stroke-linejoin="miter" fill="none" stroke="#000000" d="M0 0V11.955"/>
<text xml:space="preserve" transform="matrix(1 0 -0 1 -114.4675 1000.38729)" font-size="6.9738" font-family="CMBX7" font-weight="bold"><tspan y="-759.807" x="116.279 120.791049">17</tspan></text>
<text xml:space="preserve" transform="matrix(1 0 -0 1 -114.4675 1000.38729)" font-size="9.9626" font-family="CMBX10" font-weight="bold"><tspan y="-759.807" x="145.231 149.95328 155.20357 159.65685 165.38535 171.75145 176.47373 182.83983 188.09012">retourner</tspan></text>
<text xml:space="preserve" transform="matrix(1 0 -0 1 -114.4675 1000.38729)" font-size="9.9626" font-family="CMR10"><tspan y="-759.807" x="196.12401 204.42285 207.19246">mil</tspan></text>
<text xml:space="preserve" transform="matrix(1 0 -0 1 -114.4675 1000.38729)" font-size="6.9738" font-family="CMBX7" font-weight="bold"><tspan y="-747.852" x="115.880008 120.39205">18</tspan></text>
<text xml:space="preserve" transform="matrix(1 0 -0 1 -114.4675 1000.38729)" font-size="9.9626" font-family="CMBX10" font-weight="bold"><tspan y="-747.852" x="129.889 134.41204 137.5901 143.9562 149.68471">sinon</tspan></text>
<path transform="matrix(1,0,0,-1,20.601502,268.07728)" stroke-width=".398" stroke-linecap="butt" stroke-miterlimit="10" stroke-linejoin="miter" fill="none" stroke="#000000" d="M0 0V11.955"/>
<text xml:space="preserve" transform="matrix(1 0 -0 1 -114.4675 1000.38729)" font-size="6.9738" font-family="CMBX7" font-weight="bold"><tspan y="-735.897" x="116.279 120.791049">19</tspan></text>
<text xml:space="preserve" transform="matrix(1 0 -0 1 -114.4675 1000.38729)" font-size="9.9626" font-family="CMBX10" font-weight="bold"><tspan y="-735.897" x="145.231 149.95328 155.20357 159.65685 165.38535 171.75145 176.47373 182.83983 188.09012">retourner</tspan></text>
<text xml:space="preserve" transform="matrix(1 0 -0 1 -114.4675 1000.38729)" font-size="9.9626" font-family="CMR10"><tspan y="-735.897" x="192.80301 196.12056">-1</tspan></text>
<text xml:space="preserve" transform="matrix(1 0 -0 1 -114.4675 1000.38729)" font-size="6.9738" font-family="CMBX7" font-weight="bold"><tspan y="-723.941" x="115.88001 120.39206">20</tspan></text>
<text xml:space="preserve" transform="matrix(1 0 -0 1 -114.4675 1000.38729)" font-size="9.9626" font-family="CMBX10" font-weight="bold"><tspan y="-723.941" x="129.889 133.06708 136.25511">fin</tspan></text>
<path transform="matrix(1,0,0,-1,.47750093,282.42329)" stroke-width=".797" stroke-linecap="butt" stroke-miterlimit="10" stroke-linejoin="miter" fill="none" stroke="#000000" d="M0 0H612"/>
</svg>
