<svg xmlns="http://www.w3.org/2000/svg" xmlns:xlink="http://www.w3.org/1999/xlink" version="1.1" width="224.13158pt" height="208.0263pt" viewBox="0 0 224.13158 208.0263">
<defs>
<clipPath id="clip_0">
<path transform="matrix(1,0,0,-1,-185.21053,738.3158)" d="M185.21053 530.2895H409.3421V738.3158H185.21053Z" fill-rule="evenodd"/>
</clipPath>
<clipPath id="clip_1">
<path transform="matrix(1,0,0,-1,-185.21053,738.3158)" d="M0 0H612V792H0Z" fill-rule="evenodd"/>
</clipPath>
<clipPath id="clip_2">
<path transform="matrix(1,0,0,-1,-185.21053,738.3158)" d="M0 0H612V792H0Z" fill-rule="evenodd"/>
</clipPath>
<clipPath id="clip_3">
<path transform="matrix(1,0,0,-1,-185.21053,738.3158)" d="M0 0H612V792H0Z" fill-rule="evenodd"/>
</clipPath>
<clipPath id="clip_4">
<path transform="matrix(1,0,0,-1,-185.21053,738.3158)" d="M232.94 529.36H379.12V737.33999H232.94Z" fill-rule="evenodd"/>
</clipPath>
<clipPath id="clip_5">
<path transform="matrix(1,0,0,-1,-185.21053,738.3158)" d="M240.5 716.58H371.56V736.86007H240.5Z" fill-rule="evenodd"/>
</clipPath>
<clipPath id="clip_6">
<path transform="matrix(1,0,0,-1,-185.21053,738.3158)" d="M240.5 695.88H371.56V716.1H240.5Z" fill-rule="evenodd"/>
</clipPath>
<clipPath id="clip_7">
<path transform="matrix(1,0,0,-1,-185.21053,738.3158)" d="M240.5 675.12H371.56V695.33999H240.5Z" fill-rule="evenodd"/>
</clipPath>
<clipPath id="clip_8">
<path transform="matrix(1,0,0,-1,-185.21053,738.3158)" d="M240.5 654.34H371.56V674.58H240.5Z" fill-rule="evenodd"/>
</clipPath>
<clipPath id="clip_9">
<path transform="matrix(1,0,0,-1,-185.21053,738.3158)" d="M240.5 654.34H371.56V674.58H240.5Z" fill-rule="evenodd"/>
</clipPath>
<clipPath id="clip_10">
<path transform="matrix(1,0,0,-1,-185.21053,738.3158)" d="M240.5 654.34H371.56V674.58H240.5Z" fill-rule="evenodd"/>
</clipPath>
<clipPath id="clip_11">
<path transform="matrix(1,0,0,-1,-185.21053,738.3158)" d="M240.5 633.58H371.56V653.86007H240.5Z" fill-rule="evenodd"/>
</clipPath>
<clipPath id="clip_12">
<path transform="matrix(1,0,0,-1,-185.21053,738.3158)" d="M240.5 633.58H371.56V653.86007H240.5Z" fill-rule="evenodd"/>
</clipPath>
<clipPath id="clip_13">
<path transform="matrix(1,0,0,-1,-185.21053,738.3158)" d="M240.5 633.58H371.56V653.86007H240.5Z" fill-rule="evenodd"/>
</clipPath>
<clipPath id="clip_14">
<path transform="matrix(1,0,0,-1,-185.21053,738.3158)" d="M240.5 612.82H371.56V633.10006H240.5Z" fill-rule="evenodd"/>
</clipPath>
<clipPath id="clip_15">
<path transform="matrix(1,0,0,-1,-185.21053,738.3158)" d="M240.5 612.82H371.56V633.10006H240.5Z" fill-rule="evenodd"/>
</clipPath>
<clipPath id="clip_16">
<path transform="matrix(1,0,0,-1,-185.21053,738.3158)" d="M240.5 612.82H371.56V633.10006H240.5Z" fill-rule="evenodd"/>
</clipPath>
<clipPath id="clip_17">
<path transform="matrix(1,0,0,-1,-185.21053,738.3158)" d="M240.5 592.06H371.56V612.34H240.5Z" fill-rule="evenodd"/>
</clipPath>
<clipPath id="clip_18">
<path transform="matrix(1,0,0,-1,-185.21053,738.3158)" d="M240.5 571.36H371.56V591.57998H240.5Z" fill-rule="evenodd"/>
</clipPath>
<clipPath id="clip_19">
<path transform="matrix(1,0,0,-1,-185.21053,738.3158)" d="M240.5 550.6H371.56V570.81997H240.5Z" fill-rule="evenodd"/>
</clipPath>
<clipPath id="clip_20">
<path transform="matrix(1,0,0,-1,-185.21053,738.3158)" d="M240.5 529.84H371.56V550.06H240.5Z" fill-rule="evenodd"/>
</clipPath>
</defs>
<g>
<g clip-path="url(#clip_0)">
<g clip-path="url(#clip_1)">
<text xml:space="preserve" transform="matrix(1 0 -0 1 -185.21053 738.3158)" font-size="12" font-family="Garamond" font-weight="bold"><tspan y="-664.14" x="186.5 192.62">SP</tspan></text>
</g>
<g clip-path="url(#clip_2)">
<text xml:space="preserve" transform="matrix(1 0 -0 1 -185.21053 738.3158)" font-size="12" font-family="Garamond"><tspan y="-664.14" x="200.48"> </tspan></text>
</g>
<g clip-path="url(#clip_3)">
<path transform="matrix(1,0,0,-1,-185.21053,738.3158)" d="M186.02 674.46H186.5V674.94H186.02Z" fill-rule="evenodd"/>
<path transform="matrix(1,0,0,-1,-185.21053,738.3158)" d="M186.02 674.46H186.5V674.94H186.02Z" fill-rule="evenodd"/>
<path transform="matrix(1,0,0,-1,-185.21053,738.3158)" d="M186.5 674.46H200V674.94H186.5Z" fill-rule="evenodd"/>
<path transform="matrix(1,0,0,-1,-185.21053,738.3158)" d="M200 674.46H200.48V674.94H200Z" fill-rule="evenodd"/>
<path transform="matrix(1,0,0,-1,-185.21053,738.3158)" d="M200 674.46H200.48V674.94H200Z" fill-rule="evenodd"/>
<path transform="matrix(1,0,0,-1,-185.21053,738.3158)" d="M186.02 660.94H186.5V674.46H186.02Z" fill-rule="evenodd"/>
<path transform="matrix(1,0,0,-1,-185.21053,738.3158)" d="M200 660.94H200.48V674.46H200Z" fill-rule="evenodd"/>
<path transform="matrix(1,0,0,-1,-185.21053,738.3158)" d="M186.02 660.46H186.5V660.94H186.02Z" fill-rule="evenodd"/>
<path transform="matrix(1,0,0,-1,-185.21053,738.3158)" d="M186.02 660.46H186.5V660.94H186.02Z" fill-rule="evenodd"/>
<path transform="matrix(1,0,0,-1,-185.21053,738.3158)" d="M186.5 660.46H200V660.94H186.5Z" fill-rule="evenodd"/>
<path transform="matrix(1,0,0,-1,-185.21053,738.3158)" d="M200 660.46H200.48V660.94H200Z" fill-rule="evenodd"/>
<path transform="matrix(1,0,0,-1,-185.21053,738.3158)" d="M200 660.46H200.48V660.94H200Z" fill-rule="evenodd"/>
</g>
<g clip-path="url(#clip_4)">
<g clip-path="url(#clip_5)">
</g>
<path transform="matrix(1,0,0,-1,-185.21053,738.3158)" d="M240.02 736.86H240.5V737.33999H240.02Z" fill-rule="evenodd"/>
<path transform="matrix(1,0,0,-1,-185.21053,738.3158)" d="M240.02 736.86H240.5V737.33999H240.02Z" fill-rule="evenodd"/>
<path transform="matrix(1,0,0,-1,-185.21053,738.3158)" d="M240.5 736.86H371.56V737.33999H240.5Z" fill-rule="evenodd"/>
<path transform="matrix(1,0,0,-1,-185.21053,738.3158)" d="M371.56 736.86H372.04V737.33999H371.56Z" fill-rule="evenodd"/>
<path transform="matrix(1,0,0,-1,-185.21053,738.3158)" d="M371.56 736.86H372.04V737.33999H371.56Z" fill-rule="evenodd"/>
<path transform="matrix(1,0,0,-1,-185.21053,738.3158)" d="M240.02 716.58H240.5V736.86007H240.02Z" fill-rule="evenodd"/>
<path transform="matrix(1,0,0,-1,-185.21053,738.3158)" d="M371.56 716.58H372.04V736.86007H371.56Z" fill-rule="evenodd"/>
<g clip-path="url(#clip_6)">
</g>
<path transform="matrix(1,0,0,-1,-185.21053,738.3158)" d="M240.02 716.1H240.5V716.57998H240.02Z" fill-rule="evenodd"/>
<path transform="matrix(1,0,0,-1,-185.21053,738.3158)" d="M240.5 716.1H371.56V716.57998H240.5Z" fill-rule="evenodd"/>
<path transform="matrix(1,0,0,-1,-185.21053,738.3158)" d="M371.56 716.1H372.04V716.57998H371.56Z" fill-rule="evenodd"/>
<path transform="matrix(1,0,0,-1,-185.21053,738.3158)" d="M240.02 695.88H240.5V716.1H240.02Z" fill-rule="evenodd"/>
<path transform="matrix(1,0,0,-1,-185.21053,738.3158)" d="M371.56 695.88H372.04V716.1H371.56Z" fill-rule="evenodd"/>
<g clip-path="url(#clip_7)">
</g>
<path transform="matrix(1,0,0,-1,-185.21053,738.3158)" d="M240.02 695.4H240.5V695.88H240.02Z" fill-rule="evenodd"/>
<path transform="matrix(1,0,0,-1,-185.21053,738.3158)" d="M240.5 695.4H371.56V695.88H240.5Z" fill-rule="evenodd"/>
<path transform="matrix(1,0,0,-1,-185.21053,738.3158)" d="M371.56 695.4H372.04V695.88H371.56Z" fill-rule="evenodd"/>
<path transform="matrix(1,0,0,-1,-185.21053,738.3158)" d="M240.02 675.12H240.5V695.4H240.02Z" fill-rule="evenodd"/>
<path transform="matrix(1,0,0,-1,-185.21053,738.3158)" d="M371.56 675.12H372.04V695.4H371.56Z" fill-rule="evenodd"/>
<g clip-path="url(#clip_8)">
<g clip-path="url(#clip_9)">
<text xml:space="preserve" transform="matrix(1 0 -0 1 -185.21053 738.3158)" font-size="12" font-family="Garamond"><tspan y="-664.26" x="245.66 253.784 259.784 263.78 268.784 273.164 277.544 282.5 285.5 291.5 297.38 300.38 303.908 308.78 314.9 317.64799 322.65199 327.48799">Adresse du tableau</tspan></text>
</g>
<g clip-path="url(#clip_10)">
<text xml:space="preserve" transform="matrix(1 0 -0 1 -185.21053 738.3158)" font-size="12" font-family="Garamond"><tspan y="-664.26" x="333.46"> </tspan></text>
</g>
</g>
<path transform="matrix(1,0,0,-1,-185.21053,738.3158)" d="M240.02 674.64H240.5V675.12H240.02Z" fill-rule="evenodd"/>
<path transform="matrix(1,0,0,-1,-185.21053,738.3158)" d="M240.5 674.64H371.56V675.12H240.5Z" fill-rule="evenodd"/>
<path transform="matrix(1,0,0,-1,-185.21053,738.3158)" d="M371.56 674.64H372.04V675.12H371.56Z" fill-rule="evenodd"/>
<path transform="matrix(1,0,0,-1,-185.21053,738.3158)" d="M240.02 654.34H240.5V674.64H240.02Z" fill-rule="evenodd"/>
<path transform="matrix(1,0,0,-1,-185.21053,738.3158)" d="M371.56 654.34H372.04V674.64H371.56Z" fill-rule="evenodd"/>
<g clip-path="url(#clip_11)">
<g clip-path="url(#clip_12)">
<text xml:space="preserve" transform="matrix(1 0 -0 1 -185.21053 738.3158)" font-size="12" font-family="Garamond"><tspan y="-643.54" x="245.66 253.04001 257.91203 260.66 263.408 266.15599 271.15998 274.15998 280.15998 286.03999 289.03999 292.54399 297.37998 303.49998 306.24797 311.25196 316.12397">Taille du tableau</tspan></text>
</g>
<g clip-path="url(#clip_13)">
<text xml:space="preserve" transform="matrix(1 0 -0 1 -185.21053 738.3158)" font-size="12" font-family="Garamond"><tspan y="-643.54" x="322"> </tspan></text>
</g>
</g>
<path transform="matrix(1,0,0,-1,-185.21053,738.3158)" d="M240.02 653.86H240.5V654.33999H240.02Z" fill-rule="evenodd"/>
<path transform="matrix(1,0,0,-1,-185.21053,738.3158)" d="M240.5 653.86H371.56V654.33999H240.5Z" fill-rule="evenodd"/>
<path transform="matrix(1,0,0,-1,-185.21053,738.3158)" d="M371.56 653.86H372.04V654.33999H371.56Z" fill-rule="evenodd"/>
<path transform="matrix(1,0,0,-1,-185.21053,738.3158)" d="M240.02 633.58H240.5V653.86007H240.02Z" fill-rule="evenodd"/>
<path transform="matrix(1,0,0,-1,-185.21053,738.3158)" d="M371.56 633.58H372.04V653.86007H371.56Z" fill-rule="evenodd"/>
<g clip-path="url(#clip_14)">
<g clip-path="url(#clip_15)">
<text xml:space="preserve" transform="matrix(1 0 -0 1 -185.21053 738.3158)" font-size="12" font-family="Garamond"><tspan y="-622.78" x="245.66 251.28801 254.28801 259.29203 264.16404 268.54405 273.50004 277.88005 280.88005 287.00004 293.12004 299.00004 302.99604 305.99604 311.648 317.276 320.276 326.396 331.4 334.86799 339.87199 343.32798">5 cases pour 10 octets</tspan></text>
</g>
<g clip-path="url(#clip_16)">
<text xml:space="preserve" transform="matrix(1 0 -0 1 -185.21053 738.3158)" font-size="12" font-family="Garamond"><tspan y="-622.78" x="347.8"> </tspan></text>
</g>
</g>
<path transform="matrix(1,0,0,-1,-185.21053,738.3158)" d="M240.02 633.1H240.5V633.57998H240.02Z" fill-rule="evenodd"/>
<path transform="matrix(1,0,0,-1,-185.21053,738.3158)" d="M240.5 633.1H371.56V633.57998H240.5Z" fill-rule="evenodd"/>
<path transform="matrix(1,0,0,-1,-185.21053,738.3158)" d="M371.56 633.1H372.04V633.57998H371.56Z" fill-rule="evenodd"/>
<path transform="matrix(1,0,0,-1,-185.21053,738.3158)" d="M240.02 612.82H240.5V633.10006H240.02Z" fill-rule="evenodd"/>
<path transform="matrix(1,0,0,-1,-185.21053,738.3158)" d="M371.56 612.82H372.04V633.10006H371.56Z" fill-rule="evenodd"/>
<g clip-path="url(#clip_17)">
</g>
<path transform="matrix(1,0,0,-1,-185.21053,738.3158)" d="M240.02 612.34H240.5V612.82H240.02Z" fill-rule="evenodd"/>
<path transform="matrix(1,0,0,-1,-185.21053,738.3158)" d="M240.5 612.34H371.56V612.82H240.5Z" fill-rule="evenodd"/>
<path transform="matrix(1,0,0,-1,-185.21053,738.3158)" d="M371.56 612.34H372.04V612.82H371.56Z" fill-rule="evenodd"/>
<path transform="matrix(1,0,0,-1,-185.21053,738.3158)" d="M240.02 592.06H240.5V612.34H240.02Z" fill-rule="evenodd"/>
<path transform="matrix(1,0,0,-1,-185.21053,738.3158)" d="M371.56 592.06H372.04V612.34H371.56Z" fill-rule="evenodd"/>
<g clip-path="url(#clip_18)">
</g>
<path transform="matrix(1,0,0,-1,-185.21053,738.3158)" d="M240.02 591.58H240.5V592.06H240.02Z" fill-rule="evenodd"/>
<path transform="matrix(1,0,0,-1,-185.21053,738.3158)" d="M240.5 591.58H371.56V592.06H240.5Z" fill-rule="evenodd"/>
<path transform="matrix(1,0,0,-1,-185.21053,738.3158)" d="M371.56 591.58H372.04V592.06H371.56Z" fill-rule="evenodd"/>
<path transform="matrix(1,0,0,-1,-185.21053,738.3158)" d="M240.02 571.36H240.5V591.57998H240.02Z" fill-rule="evenodd"/>
<path transform="matrix(1,0,0,-1,-185.21053,738.3158)" d="M371.56 571.36H372.04V591.57998H371.56Z" fill-rule="evenodd"/>
<g clip-path="url(#clip_19)">
</g>
<path transform="matrix(1,0,0,-1,-185.21053,738.3158)" d="M240.02 570.88H240.5V571.36H240.02Z" fill-rule="evenodd"/>
<path transform="matrix(1,0,0,-1,-185.21053,738.3158)" d="M240.5 570.88H371.56V571.36H240.5Z" fill-rule="evenodd"/>
<path transform="matrix(1,0,0,-1,-185.21053,738.3158)" d="M371.56 570.88H372.04V571.36H371.56Z" fill-rule="evenodd"/>
<path transform="matrix(1,0,0,-1,-185.21053,738.3158)" d="M240.02 550.6H240.5V570.88H240.02Z" fill-rule="evenodd"/>
<path transform="matrix(1,0,0,-1,-185.21053,738.3158)" d="M371.56 550.6H372.04V570.88H371.56Z" fill-rule="evenodd"/>
<g clip-path="url(#clip_20)">
</g>
<path transform="matrix(1,0,0,-1,-185.21053,738.3158)" d="M240.02 550.12H240.5V550.6H240.02Z" fill-rule="evenodd"/>
<path transform="matrix(1,0,0,-1,-185.21053,738.3158)" d="M240.5 550.12H371.56V550.6H240.5Z" fill-rule="evenodd"/>
<path transform="matrix(1,0,0,-1,-185.21053,738.3158)" d="M371.56 550.12H372.04V550.6H371.56Z" fill-rule="evenodd"/>
<path transform="matrix(1,0,0,-1,-185.21053,738.3158)" d="M240.02 529.84H240.5V550.12008H240.02Z" fill-rule="evenodd"/>
<path transform="matrix(1,0,0,-1,-185.21053,738.3158)" d="M240.02 529.36H240.5V529.83999H240.02Z" fill-rule="evenodd"/>
<path transform="matrix(1,0,0,-1,-185.21053,738.3158)" d="M240.02 529.36H240.5V529.83999H240.02Z" fill-rule="evenodd"/>
<path transform="matrix(1,0,0,-1,-185.21053,738.3158)" d="M240.5 529.36H371.56V529.83999H240.5Z" fill-rule="evenodd"/>
<path transform="matrix(1,0,0,-1,-185.21053,738.3158)" d="M371.56 529.84H372.04V550.12008H371.56Z" fill-rule="evenodd"/>
<path transform="matrix(1,0,0,-1,-185.21053,738.3158)" d="M371.56 529.36H372.04V529.83999H371.56Z" fill-rule="evenodd"/>
<path transform="matrix(1,0,0,-1,-185.21053,738.3158)" d="M371.56 529.36H372.04V529.83999H371.56Z" fill-rule="evenodd"/>
</g>
<path transform="matrix(1,0,0,-1,20.619477,68.065799)" d="M0 0 26.33 3.03 26.27 3.53-.06 .5ZM25.65 .18 31.27 3.85 24.97 6.14Z" fill="#4472c4"/>
</g>
</g>
</svg>
