<svg xmlns="http://www.w3.org/2000/svg" xmlns:xlink="http://www.w3.org/1999/xlink" version="1.1" width="288.55265pt" height="32.21051pt" viewBox="0 0 288.55265 32.21051">
<defs>
<clipPath id="clip_0">
<path transform="matrix(1,0,0,-1,-89.92105,720.8684)" d="M89.92105 688.6579H378.4737V720.8684H89.92105Z" fill-rule="evenodd"/>
</clipPath>
<clipPath id="clip_1">
<path transform="matrix(1,0,0,-1,-89.92105,720.8684)" d="M90 700.44H108.96V720H90Z"/>
</clipPath>
<clipPath id="clip_2">
<path transform="matrix(1,0,0,-1,-89.92105,720.8684)" d="M90 700.44H108.96V720H90Z"/>
</clipPath>
<clipPath id="clip_3">
<path transform="matrix(1,0,0,-1,-89.92105,720.8684)" d="M108.96 700.44H120.06V720H108.96Z"/>
</clipPath>
<clipPath id="clip_4">
<path transform="matrix(1,0,0,-1,-89.92105,720.8684)" d="M120.06 700.44H139.01999V720H120.06Z"/>
</clipPath>
<clipPath id="clip_5">
<path transform="matrix(1,0,0,-1,-89.92105,720.8684)" d="M120.06 700.44H139.01999V720H120.06Z"/>
</clipPath>
<clipPath id="clip_6">
<path transform="matrix(1,0,0,-1,-89.92105,720.8684)" d="M139.02 700.44H150.12001V720H139.02Z"/>
</clipPath>
<clipPath id="clip_7">
<path transform="matrix(1,0,0,-1,-89.92105,720.8684)" d="M150.12 700.44H169.07999V720H150.12Z"/>
</clipPath>
<clipPath id="clip_8">
<path transform="matrix(1,0,0,-1,-89.92105,720.8684)" d="M150.12 700.44H169.07999V720H150.12Z"/>
</clipPath>
<clipPath id="clip_9">
<path transform="matrix(1,0,0,-1,-89.92105,720.8684)" d="M169.08 700.44H180.18001V720H169.08Z"/>
</clipPath>
<clipPath id="clip_10">
<path transform="matrix(1,0,0,-1,-89.92105,720.8684)" d="M180.12 700.44H199.07999V720H180.12Z"/>
</clipPath>
<clipPath id="clip_11">
<path transform="matrix(1,0,0,-1,-89.92105,720.8684)" d="M180.12 700.44H199.07999V720H180.12Z"/>
</clipPath>
<clipPath id="clip_12">
<path transform="matrix(1,0,0,-1,-89.92105,720.8684)" d="M199.08 700.44H210.18001V720H199.08Z"/>
</clipPath>
<clipPath id="clip_13">
<path transform="matrix(1,0,0,-1,-89.92105,720.8684)" d="M210.18 700.44H229.13999V720H210.18Z"/>
</clipPath>
<clipPath id="clip_14">
<path transform="matrix(1,0,0,-1,-89.92105,720.8684)" d="M210.18 700.44H229.13999V720H210.18Z"/>
</clipPath>
<clipPath id="clip_15">
<path transform="matrix(1,0,0,-1,-89.92105,720.8684)" d="M229.14 700.44H240.24V720H229.14Z"/>
</clipPath>
<clipPath id="clip_16">
<path transform="matrix(1,0,0,-1,-89.92105,720.8684)" d="M240.24 700.44H259.2V720H240.24Z"/>
</clipPath>
<clipPath id="clip_17">
<path transform="matrix(1,0,0,-1,-89.92105,720.8684)" d="M240.24 700.44H259.2V720H240.24Z"/>
</clipPath>
<clipPath id="clip_18">
<path transform="matrix(1,0,0,-1,-89.92105,720.8684)" d="M259.2 700.44H270.30003V720H259.2Z"/>
</clipPath>
<clipPath id="clip_19">
<path transform="matrix(1,0,0,-1,-89.92105,720.8684)" d="M270.3 700.44H289.25999V720H270.3Z"/>
</clipPath>
<clipPath id="clip_20">
<path transform="matrix(1,0,0,-1,-89.92105,720.8684)" d="M270.3 700.44H289.25999V720H270.3Z"/>
</clipPath>
<clipPath id="clip_21">
<path transform="matrix(1,0,0,-1,-89.92105,720.8684)" d="M289.26 700.44H300.36003V720H289.26Z"/>
</clipPath>
<clipPath id="clip_22">
<path transform="matrix(1,0,0,-1,-89.92105,720.8684)" d="M300.36 700.44H319.31999V720H300.36Z"/>
</clipPath>
<clipPath id="clip_23">
<path transform="matrix(1,0,0,-1,-89.92105,720.8684)" d="M300.36 700.44H319.31999V720H300.36Z"/>
</clipPath>
<clipPath id="clip_24">
<path transform="matrix(1,0,0,-1,-89.92105,720.8684)" d="M319.32 700.44H330.42V720H319.32Z"/>
</clipPath>
<clipPath id="clip_25">
<path transform="matrix(1,0,0,-1,-89.92105,720.8684)" d="M330.42 700.44H349.32V720H330.42Z"/>
</clipPath>
<clipPath id="clip_26">
<path transform="matrix(1,0,0,-1,-89.92105,720.8684)" d="M330.42 700.44H349.32V720H330.42Z"/>
</clipPath>
<clipPath id="clip_27">
<path transform="matrix(1,0,0,-1,-89.92105,720.8684)" d="M349.38 700.44H360.48V720H349.38Z"/>
</clipPath>
<clipPath id="clip_28">
<path transform="matrix(1,0,0,-1,-89.92105,720.8684)" d="M360.42 700.44H379.37904V720H360.42Z"/>
</clipPath>
<clipPath id="clip_29">
<path transform="matrix(1,0,0,-1,-89.92105,720.8684)" d="M360.42 700.44H379.37904V720H360.42Z"/>
</clipPath>
<clipPath id="clip_30">
<path transform="matrix(1,0,0,-1,-89.92105,720.8684)" d="M90 688.26H108.96V700.44107H90Z"/>
</clipPath>
<clipPath id="clip_31">
<path transform="matrix(1,0,0,-1,-89.92105,720.8684)" d="M90 688.26H108.96V700.44107H90Z"/>
</clipPath>
<clipPath id="clip_32">
<path transform="matrix(1,0,0,-1,-89.92105,720.8684)" d="M108.96 688.26H120.06V700.44107H108.96Z"/>
</clipPath>
<clipPath id="clip_33">
<path transform="matrix(1,0,0,-1,-89.92105,720.8684)" d="M120.06 688.26H139.01999V700.44107H120.06Z"/>
</clipPath>
<clipPath id="clip_34">
<path transform="matrix(1,0,0,-1,-89.92105,720.8684)" d="M120.06 688.26H139.01999V700.44107H120.06Z"/>
</clipPath>
<clipPath id="clip_35">
<path transform="matrix(1,0,0,-1,-89.92105,720.8684)" d="M139.02 688.26H150.12001V700.44107H139.02Z"/>
</clipPath>
<clipPath id="clip_36">
<path transform="matrix(1,0,0,-1,-89.92105,720.8684)" d="M150.12 688.26H169.07999V700.44107H150.12Z"/>
</clipPath>
<clipPath id="clip_37">
<path transform="matrix(1,0,0,-1,-89.92105,720.8684)" d="M150.12 688.26H169.07999V700.44107H150.12Z"/>
</clipPath>
<clipPath id="clip_38">
<path transform="matrix(1,0,0,-1,-89.92105,720.8684)" d="M169.08 688.26H180.18001V700.44107H169.08Z"/>
</clipPath>
<clipPath id="clip_39">
<path transform="matrix(1,0,0,-1,-89.92105,720.8684)" d="M180.12 688.26H199.07999V700.44107H180.12Z"/>
</clipPath>
<clipPath id="clip_40">
<path transform="matrix(1,0,0,-1,-89.92105,720.8684)" d="M180.12 688.26H199.07999V700.44107H180.12Z"/>
</clipPath>
<clipPath id="clip_41">
<path transform="matrix(1,0,0,-1,-89.92105,720.8684)" d="M199.08 688.26H210.18001V700.44107H199.08Z"/>
</clipPath>
<clipPath id="clip_42">
<path transform="matrix(1,0,0,-1,-89.92105,720.8684)" d="M210.18 688.26H229.13999V700.44107H210.18Z"/>
</clipPath>
<clipPath id="clip_43">
<path transform="matrix(1,0,0,-1,-89.92105,720.8684)" d="M210.18 688.26H229.13999V700.44107H210.18Z"/>
</clipPath>
<clipPath id="clip_44">
<path transform="matrix(1,0,0,-1,-89.92105,720.8684)" d="M229.14 688.26H240.24V700.44107H229.14Z"/>
</clipPath>
<clipPath id="clip_45">
<path transform="matrix(1,0,0,-1,-89.92105,720.8684)" d="M240.24 688.26H259.2V700.44107H240.24Z"/>
</clipPath>
<clipPath id="clip_46">
<path transform="matrix(1,0,0,-1,-89.92105,720.8684)" d="M240.24 688.26H259.2V700.44107H240.24Z"/>
</clipPath>
<clipPath id="clip_47">
<path transform="matrix(1,0,0,-1,-89.92105,720.8684)" d="M259.2 688.26H270.30003V700.44107H259.2Z"/>
</clipPath>
<clipPath id="clip_48">
<path transform="matrix(1,0,0,-1,-89.92105,720.8684)" d="M270.3 688.26H289.25999V700.44107H270.3Z"/>
</clipPath>
<clipPath id="clip_49">
<path transform="matrix(1,0,0,-1,-89.92105,720.8684)" d="M270.3 688.26H289.25999V700.44107H270.3Z"/>
</clipPath>
<clipPath id="clip_50">
<path transform="matrix(1,0,0,-1,-89.92105,720.8684)" d="M289.26 688.26H300.36003V700.44107H289.26Z"/>
</clipPath>
<clipPath id="clip_51">
<path transform="matrix(1,0,0,-1,-89.92105,720.8684)" d="M300.36 688.26H319.31999V700.44107H300.36Z"/>
</clipPath>
<clipPath id="clip_52">
<path transform="matrix(1,0,0,-1,-89.92105,720.8684)" d="M300.36 688.26H319.31999V700.44107H300.36Z"/>
</clipPath>
<clipPath id="clip_53">
<path transform="matrix(1,0,0,-1,-89.92105,720.8684)" d="M319.32 688.26H330.42V700.44107H319.32Z"/>
</clipPath>
<clipPath id="clip_54">
<path transform="matrix(1,0,0,-1,-89.92105,720.8684)" d="M330.42 688.26H349.32V700.44107H330.42Z"/>
</clipPath>
<clipPath id="clip_55">
<path transform="matrix(1,0,0,-1,-89.92105,720.8684)" d="M330.42 688.26H349.32V700.44107H330.42Z"/>
</clipPath>
<clipPath id="clip_56">
<path transform="matrix(1,0,0,-1,-89.92105,720.8684)" d="M349.38 688.26H360.48V700.44107H349.38Z"/>
</clipPath>
<clipPath id="clip_57">
<path transform="matrix(1,0,0,-1,-89.92105,720.8684)" d="M360.42 688.26H379.37904V700.44107H360.42Z"/>
</clipPath>
<clipPath id="clip_58">
<path transform="matrix(1,0,0,-1,-89.92105,720.8684)" d="M360.42 688.26H379.37904V700.44107H360.42Z"/>
</clipPath>
</defs>
<g clip-path="url(#clip_0)">
<path transform="matrix(1,0,0,-1,-89.92105,720.8684)" d="M90 700.44H108.96V720H90Z" fill="#d3d3d3" fill-rule="evenodd"/>
<path transform="matrix(1,0,0,-1,-89.92105,720.8684)" d="M95.4 700.44H103.56V720H95.4Z" fill="#d3d3d3"/>
<g clip-path="url(#clip_1)">
<text xml:space="preserve" transform="matrix(1 0 -0 1 -89.92105 720.8684)" font-size="16.02" font-family="Calibri"><tspan y="-704.76" x="95.4">0</tspan></text>
</g>
<g clip-path="url(#clip_2)">
<text xml:space="preserve" transform="matrix(1 0 -0 1 -89.92105 720.8684)" font-size="16.02" font-family="Calibri"><tspan y="-704.76" x="103.5"> </tspan></text>
</g>
<path transform="matrix(1,0,0,-1,-89.92105,720.8684)" d="M108.96 700.44H120.06V720H108.96Z" fill="#ffffff" fill-rule="evenodd"/>
<path transform="matrix(1,0,0,-1,-89.92105,720.8684)" d="M114.36 700.44H114.66V720H114.36Z" fill="#ffffff"/>
<g clip-path="url(#clip_3)">
<text xml:space="preserve" transform="matrix(1 0 -0 1 -89.92105 720.8684)" font-size="16.02" font-family="Calibri"><tspan y="-704.76" x="114.48"> </tspan></text>
</g>
<path transform="matrix(1,0,0,-1,-89.92105,720.8684)" d="M120.06 700.44H139.01999V720H120.06Z" fill="#d3d3d3" fill-rule="evenodd"/>
<path transform="matrix(1,0,0,-1,-89.92105,720.8684)" d="M125.46 700.44H133.62V720H125.46Z" fill="#d3d3d3"/>
<g clip-path="url(#clip_4)">
<text xml:space="preserve" transform="matrix(1 0 -0 1 -89.92105 720.8684)" font-size="16.02" font-family="Calibri"><tspan y="-704.76" x="125.46">0</tspan></text>
</g>
<g clip-path="url(#clip_5)">
<text xml:space="preserve" transform="matrix(1 0 -0 1 -89.92105 720.8684)" font-size="16.02" font-family="Calibri"><tspan y="-704.76" x="133.56"> </tspan></text>
</g>
<path transform="matrix(1,0,0,-1,-89.92105,720.8684)" d="M139.02 700.44H150.12001V720H139.02Z" fill="#ffffff" fill-rule="evenodd"/>
<path transform="matrix(1,0,0,-1,-89.92105,720.8684)" d="M144.42 700.44H144.72V720H144.42Z" fill="#ffffff"/>
<g clip-path="url(#clip_6)">
<text xml:space="preserve" transform="matrix(1 0 -0 1 -89.92105 720.8684)" font-size="16.02" font-family="Calibri"><tspan y="-704.76" x="144.54"> </tspan></text>
</g>
<path transform="matrix(1,0,0,-1,-89.92105,720.8684)" d="M150.12 700.44H169.07999V720H150.12Z" fill="#d3d3d3" fill-rule="evenodd"/>
<path transform="matrix(1,0,0,-1,-89.92105,720.8684)" d="M155.52 700.44H163.62001V720H155.52Z" fill="#d3d3d3"/>
<g clip-path="url(#clip_7)">
<text xml:space="preserve" transform="matrix(1 0 -0 1 -89.92105 720.8684)" font-size="16.02" font-family="Calibri"><tspan y="-704.76" x="155.52">0</tspan></text>
</g>
<g clip-path="url(#clip_8)">
<text xml:space="preserve" transform="matrix(1 0 -0 1 -89.92105 720.8684)" font-size="16.02" font-family="Calibri"><tspan y="-704.76" x="163.62"> </tspan></text>
</g>
<path transform="matrix(1,0,0,-1,-89.92105,720.8684)" d="M169.08 700.44H180.18001V720H169.08Z" fill="#ffffff" fill-rule="evenodd"/>
<path transform="matrix(1,0,0,-1,-89.92105,720.8684)" d="M174.42 700.44H174.78V720H174.42Z" fill="#ffffff"/>
<g clip-path="url(#clip_9)">
<text xml:space="preserve" transform="matrix(1 0 -0 1 -89.92105 720.8684)" font-size="16.02" font-family="Calibri"><tspan y="-704.76" x="174.54"> </tspan></text>
</g>
<path transform="matrix(1,0,0,-1,-89.92105,720.8684)" d="M180.12 700.44H199.07999V720H180.12Z" fill="#d3d3d3" fill-rule="evenodd"/>
<path transform="matrix(1,0,0,-1,-89.92105,720.8684)" d="M185.52 700.44H193.68001V720H185.52Z" fill="#d3d3d3"/>
<g clip-path="url(#clip_10)">
<text xml:space="preserve" transform="matrix(1 0 -0 1 -89.92105 720.8684)" font-size="16.02" font-family="Calibri"><tspan y="-704.76" x="185.52">0</tspan></text>
</g>
<g clip-path="url(#clip_11)">
<text xml:space="preserve" transform="matrix(1 0 -0 1 -89.92105 720.8684)" font-size="16.02" font-family="Calibri"><tspan y="-704.76" x="193.62"> </tspan></text>
</g>
<path transform="matrix(1,0,0,-1,-89.92105,720.8684)" d="M199.08 700.44H210.18001V720H199.08Z" fill="#ffffff" fill-rule="evenodd"/>
<path transform="matrix(1,0,0,-1,-89.92105,720.8684)" d="M204.48 700.44H204.78V720H204.48Z" fill="#ffffff"/>
<g clip-path="url(#clip_12)">
<text xml:space="preserve" transform="matrix(1 0 -0 1 -89.92105 720.8684)" font-size="16.02" font-family="Calibri"><tspan y="-704.76" x="204.6"> </tspan></text>
</g>
<path transform="matrix(1,0,0,-1,-89.92105,720.8684)" d="M210.18 700.44H229.13999V720H210.18Z" fill="#d3d3d3" fill-rule="evenodd"/>
<path transform="matrix(1,0,0,-1,-89.92105,720.8684)" d="M215.58 700.44H223.74V720H215.58Z" fill="#d3d3d3"/>
<g clip-path="url(#clip_13)">
<text xml:space="preserve" transform="matrix(1 0 -0 1 -89.92105 720.8684)" font-size="16.02" font-family="Calibri"><tspan y="-704.76" x="215.58">0</tspan></text>
</g>
<g clip-path="url(#clip_14)">
<text xml:space="preserve" transform="matrix(1 0 -0 1 -89.92105 720.8684)" font-size="16.02" font-family="Calibri"><tspan y="-704.76" x="223.68"> </tspan></text>
</g>
<path transform="matrix(1,0,0,-1,-89.92105,720.8684)" d="M229.14 700.44H240.24V720H229.14Z" fill="#ffffff" fill-rule="evenodd"/>
<path transform="matrix(1,0,0,-1,-89.92105,720.8684)" d="M234.54 700.44H234.84V720H234.54Z" fill="#ffffff"/>
<g clip-path="url(#clip_15)">
<text xml:space="preserve" transform="matrix(1 0 -0 1 -89.92105 720.8684)" font-size="16.02" font-family="Calibri"><tspan y="-704.76" x="234.66"> </tspan></text>
</g>
<path transform="matrix(1,0,0,-1,-89.92105,720.8684)" d="M240.24 700.44H259.2V720H240.24Z" fill="#d3d3d3" fill-rule="evenodd"/>
<path transform="matrix(1,0,0,-1,-89.92105,720.8684)" d="M245.64 700.44H253.8V720H245.64Z" fill="#d3d3d3"/>
<g clip-path="url(#clip_16)">
<text xml:space="preserve" transform="matrix(1 0 -0 1 -89.92105 720.8684)" font-size="16.02" font-family="Calibri"><tspan y="-704.76" x="245.64">0</tspan></text>
</g>
<g clip-path="url(#clip_17)">
<text xml:space="preserve" transform="matrix(1 0 -0 1 -89.92105 720.8684)" font-size="16.02" font-family="Calibri"><tspan y="-704.76" x="253.74"> </tspan></text>
</g>
<path transform="matrix(1,0,0,-1,-89.92105,720.8684)" d="M259.2 700.44H270.30003V720H259.2Z" fill="#ffffff" fill-rule="evenodd"/>
<path transform="matrix(1,0,0,-1,-89.92105,720.8684)" d="M264.6 700.44H264.9V720H264.6Z" fill="#ffffff"/>
<g clip-path="url(#clip_18)">
<text xml:space="preserve" transform="matrix(1 0 -0 1 -89.92105 720.8684)" font-size="16.02" font-family="Calibri"><tspan y="-704.76" x="264.72"> </tspan></text>
</g>
<path transform="matrix(1,0,0,-1,-89.92105,720.8684)" d="M270.3 700.44H289.25999V720H270.3Z" fill="#d3d3d3" fill-rule="evenodd"/>
<path transform="matrix(1,0,0,-1,-89.92105,720.8684)" d="M275.7 700.44H283.86003V720H275.7Z" fill="#d3d3d3"/>
<g clip-path="url(#clip_19)">
<text xml:space="preserve" transform="matrix(1 0 -0 1 -89.92105 720.8684)" font-size="16.02" font-family="Calibri"><tspan y="-704.76" x="275.7">0</tspan></text>
</g>
<g clip-path="url(#clip_20)">
<text xml:space="preserve" transform="matrix(1 0 -0 1 -89.92105 720.8684)" font-size="16.02" font-family="Calibri"><tspan y="-704.76" x="283.8"> </tspan></text>
</g>
<path transform="matrix(1,0,0,-1,-89.92105,720.8684)" d="M289.26 700.44H300.36003V720H289.26Z" fill="#ffffff" fill-rule="evenodd"/>
<path transform="matrix(1,0,0,-1,-89.92105,720.8684)" d="M294.66 700.44H294.96V720H294.66Z" fill="#ffffff"/>
<g clip-path="url(#clip_21)">
<text xml:space="preserve" transform="matrix(1 0 -0 1 -89.92105 720.8684)" font-size="16.02" font-family="Calibri"><tspan y="-704.76" x="294.78"> </tspan></text>
</g>
<path transform="matrix(1,0,0,-1,-89.92105,720.8684)" d="M300.36 700.44H319.31999V720H300.36Z" fill="#d3d3d3" fill-rule="evenodd"/>
<path transform="matrix(1,0,0,-1,-89.92105,720.8684)" d="M305.76 700.44H313.92V720H305.76Z" fill="#d3d3d3"/>
<g clip-path="url(#clip_22)">
<text xml:space="preserve" transform="matrix(1 0 -0 1 -89.92105 720.8684)" font-size="16.02" font-family="Calibri"><tspan y="-704.76" x="305.76">0</tspan></text>
</g>
<g clip-path="url(#clip_23)">
<text xml:space="preserve" transform="matrix(1 0 -0 1 -89.92105 720.8684)" font-size="16.02" font-family="Calibri"><tspan y="-704.76" x="313.86"> </tspan></text>
</g>
<path transform="matrix(1,0,0,-1,-89.92105,720.8684)" d="M319.32 700.44H330.42V720H319.32Z" fill="#ffffff" fill-rule="evenodd"/>
<path transform="matrix(1,0,0,-1,-89.92105,720.8684)" d="M324.72 700.44H325.02V720H324.72Z" fill="#ffffff"/>
<g clip-path="url(#clip_24)">
<text xml:space="preserve" transform="matrix(1 0 -0 1 -89.92105 720.8684)" font-size="16.02" font-family="Calibri"><tspan y="-704.76" x="324.84"> </tspan></text>
</g>
<path transform="matrix(1,0,0,-1,-89.92105,720.8684)" d="M330.42 700.44H349.32V720H330.42Z" fill="#d3d3d3" fill-rule="evenodd"/>
<path transform="matrix(1,0,0,-1,-89.92105,720.8684)" d="M335.82 700.44H343.92V720H335.82Z" fill="#d3d3d3"/>
<g clip-path="url(#clip_25)">
<text xml:space="preserve" transform="matrix(1 0 -0 1 -89.92105 720.8684)" font-size="16.02" font-family="Calibri"><tspan y="-704.76" x="335.82">0</tspan></text>
</g>
<g clip-path="url(#clip_26)">
<text xml:space="preserve" transform="matrix(1 0 -0 1 -89.92105 720.8684)" font-size="16.02" font-family="Calibri"><tspan y="-704.76" x="343.92"> </tspan></text>
</g>
<path transform="matrix(1,0,0,-1,-89.92105,720.8684)" d="M349.38 700.44H360.48V720H349.38Z" fill="#ffffff" fill-rule="evenodd"/>
<path transform="matrix(1,0,0,-1,-89.92105,720.8684)" d="M354.78 700.44H355.08V720H354.78Z" fill="#ffffff"/>
<g clip-path="url(#clip_27)">
<text xml:space="preserve" transform="matrix(1 0 -0 1 -89.92105 720.8684)" font-size="16.02" font-family="Calibri"><tspan y="-704.76" x="354.9"> </tspan></text>
</g>
<path transform="matrix(1,0,0,-1,-89.92105,720.8684)" d="M360.42 700.44H379.38V720H360.42Z" fill="#d3d3d3" fill-rule="evenodd"/>
<path transform="matrix(1,0,0,-1,-89.92105,720.8684)" d="M365.82 700.44H373.979V720H365.82Z" fill="#d3d3d3"/>
<g clip-path="url(#clip_28)">
<text xml:space="preserve" transform="matrix(1 0 -0 1 -89.92105 720.8684)" font-size="16.02" font-family="Calibri"><tspan y="-704.76" x="365.82">0</tspan></text>
</g>
<g clip-path="url(#clip_29)">
<text xml:space="preserve" transform="matrix(1 0 -0 1 -89.92105 720.8684)" font-size="16.02" font-family="Calibri"><tspan y="-704.76" x="373.92"> </tspan></text>
</g>
<path transform="matrix(1,0,0,-1,-89.92105,720.8684)" d="M90 688.26H108.96V700.44H90Z" fill="#ffffff" fill-rule="evenodd"/>
<path transform="matrix(1,0,0,-1,-89.92105,720.8684)" d="M95.4 688.26H103.56V700.44107H95.4Z" fill="#ffffff"/>
<g clip-path="url(#clip_30)">
<text xml:space="preserve" transform="matrix(1 0 -0 1 -89.92105 720.8684)" font-size="10.02" font-family="Calibri"><tspan y="-690.96" x="96.96">0</tspan></text>
</g>
<g clip-path="url(#clip_31)">
<text xml:space="preserve" transform="matrix(1 0 -0 1 -89.92105 720.8684)" font-size="10.02" font-family="Calibri"><tspan y="-690.96" x="102"> </tspan></text>
</g>
<path transform="matrix(1,0,0,-1,-89.92105,720.8684)" d="M108.96 688.26H120.06V700.44H108.96Z" fill="#ffffff" fill-rule="evenodd"/>
<path transform="matrix(1,0,0,-1,-89.92105,720.8684)" d="M114.36 688.26H114.66V700.44107H114.36Z" fill="#ffffff"/>
<g clip-path="url(#clip_32)">
<text xml:space="preserve" transform="matrix(1 0 -0 1 -89.92105 720.8684)" font-size="10.02" font-family="Calibri"><tspan y="-690.96" x="114.48"> </tspan></text>
</g>
<path transform="matrix(1,0,0,-1,-89.92105,720.8684)" d="M120.06 688.26H139.01999V700.44H120.06Z" fill="#ffffff" fill-rule="evenodd"/>
<path transform="matrix(1,0,0,-1,-89.92105,720.8684)" d="M125.46 688.26H133.62V700.44107H125.46Z" fill="#ffffff"/>
<g clip-path="url(#clip_33)">
<text xml:space="preserve" transform="matrix(1 0 -0 1 -89.92105 720.8684)" font-size="10.02" font-family="Calibri"><tspan y="-690.96" x="127.02">1</tspan></text>
</g>
<g clip-path="url(#clip_34)">
<text xml:space="preserve" transform="matrix(1 0 -0 1 -89.92105 720.8684)" font-size="10.02" font-family="Calibri"><tspan y="-690.96" x="132.06"> </tspan></text>
</g>
<path transform="matrix(1,0,0,-1,-89.92105,720.8684)" d="M139.02 688.26H150.12001V700.44H139.02Z" fill="#ffffff" fill-rule="evenodd"/>
<path transform="matrix(1,0,0,-1,-89.92105,720.8684)" d="M144.42 688.26H144.72V700.44107H144.42Z" fill="#ffffff"/>
<g clip-path="url(#clip_35)">
<text xml:space="preserve" transform="matrix(1 0 -0 1 -89.92105 720.8684)" font-size="10.02" font-family="Calibri"><tspan y="-690.96" x="144.54"> </tspan></text>
</g>
<path transform="matrix(1,0,0,-1,-89.92105,720.8684)" d="M150.12 688.26H169.07999V700.44H150.12Z" fill="#ffffff" fill-rule="evenodd"/>
<path transform="matrix(1,0,0,-1,-89.92105,720.8684)" d="M155.52 688.26H163.62001V700.44107H155.52Z" fill="#ffffff"/>
<g clip-path="url(#clip_36)">
<text xml:space="preserve" transform="matrix(1 0 -0 1 -89.92105 720.8684)" font-size="10.02" font-family="Calibri"><tspan y="-690.96" x="157.08">2</tspan></text>
</g>
<g clip-path="url(#clip_37)">
<text xml:space="preserve" transform="matrix(1 0 -0 1 -89.92105 720.8684)" font-size="10.02" font-family="Calibri"><tspan y="-690.96" x="162.12"> </tspan></text>
</g>
<path transform="matrix(1,0,0,-1,-89.92105,720.8684)" d="M169.08 688.26H180.18001V700.44H169.08Z" fill="#ffffff" fill-rule="evenodd"/>
<path transform="matrix(1,0,0,-1,-89.92105,720.8684)" d="M174.42 688.26H174.78V700.44107H174.42Z" fill="#ffffff"/>
<g clip-path="url(#clip_38)">
<text xml:space="preserve" transform="matrix(1 0 -0 1 -89.92105 720.8684)" font-size="10.02" font-family="Calibri"><tspan y="-690.96" x="174.54"> </tspan></text>
</g>
<path transform="matrix(1,0,0,-1,-89.92105,720.8684)" d="M180.12 688.26H199.07999V700.44H180.12Z" fill="#ffffff" fill-rule="evenodd"/>
<path transform="matrix(1,0,0,-1,-89.92105,720.8684)" d="M185.52 688.26H193.68001V700.44107H185.52Z" fill="#ffffff"/>
<g clip-path="url(#clip_39)">
<text xml:space="preserve" transform="matrix(1 0 -0 1 -89.92105 720.8684)" font-size="10.02" font-family="Calibri"><tspan y="-690.96" x="187.08">3</tspan></text>
</g>
<g clip-path="url(#clip_40)">
<text xml:space="preserve" transform="matrix(1 0 -0 1 -89.92105 720.8684)" font-size="10.02" font-family="Calibri"><tspan y="-690.96" x="192.12"> </tspan></text>
</g>
<path transform="matrix(1,0,0,-1,-89.92105,720.8684)" d="M199.08 688.26H210.18001V700.44H199.08Z" fill="#ffffff" fill-rule="evenodd"/>
<path transform="matrix(1,0,0,-1,-89.92105,720.8684)" d="M204.48 688.26H204.78V700.44107H204.48Z" fill="#ffffff"/>
<g clip-path="url(#clip_41)">
<text xml:space="preserve" transform="matrix(1 0 -0 1 -89.92105 720.8684)" font-size="10.02" font-family="Calibri"><tspan y="-690.96" x="204.6"> </tspan></text>
</g>
<path transform="matrix(1,0,0,-1,-89.92105,720.8684)" d="M210.18 688.26H229.13999V700.44H210.18Z" fill="#ffffff" fill-rule="evenodd"/>
<path transform="matrix(1,0,0,-1,-89.92105,720.8684)" d="M215.58 688.26H223.74V700.44107H215.58Z" fill="#ffffff"/>
<g clip-path="url(#clip_42)">
<text xml:space="preserve" transform="matrix(1 0 -0 1 -89.92105 720.8684)" font-size="10.02" font-family="Calibri"><tspan y="-690.96" x="217.14">4</tspan></text>
</g>
<g clip-path="url(#clip_43)">
<text xml:space="preserve" transform="matrix(1 0 -0 1 -89.92105 720.8684)" font-size="10.02" font-family="Calibri"><tspan y="-690.96" x="222.18"> </tspan></text>
</g>
<path transform="matrix(1,0,0,-1,-89.92105,720.8684)" d="M229.14 688.26H240.24V700.44H229.14Z" fill="#ffffff" fill-rule="evenodd"/>
<path transform="matrix(1,0,0,-1,-89.92105,720.8684)" d="M234.54 688.26H234.84V700.44107H234.54Z" fill="#ffffff"/>
<g clip-path="url(#clip_44)">
<text xml:space="preserve" transform="matrix(1 0 -0 1 -89.92105 720.8684)" font-size="10.02" font-family="Calibri"><tspan y="-690.96" x="234.66"> </tspan></text>
</g>
<path transform="matrix(1,0,0,-1,-89.92105,720.8684)" d="M240.24 688.26H259.2V700.44H240.24Z" fill="#ffffff" fill-rule="evenodd"/>
<path transform="matrix(1,0,0,-1,-89.92105,720.8684)" d="M245.64 688.26H253.8V700.44107H245.64Z" fill="#ffffff"/>
<g clip-path="url(#clip_45)">
<text xml:space="preserve" transform="matrix(1 0 -0 1 -89.92105 720.8684)" font-size="10.02" font-family="Calibri"><tspan y="-690.96" x="247.2">5</tspan></text>
</g>
<g clip-path="url(#clip_46)">
<text xml:space="preserve" transform="matrix(1 0 -0 1 -89.92105 720.8684)" font-size="10.02" font-family="Calibri"><tspan y="-690.96" x="252.24"> </tspan></text>
</g>
<path transform="matrix(1,0,0,-1,-89.92105,720.8684)" d="M259.2 688.26H270.30003V700.44H259.2Z" fill="#ffffff" fill-rule="evenodd"/>
<path transform="matrix(1,0,0,-1,-89.92105,720.8684)" d="M264.6 688.26H264.9V700.44107H264.6Z" fill="#ffffff"/>
<g clip-path="url(#clip_47)">
<text xml:space="preserve" transform="matrix(1 0 -0 1 -89.92105 720.8684)" font-size="10.02" font-family="Calibri"><tspan y="-690.96" x="264.72"> </tspan></text>
</g>
<path transform="matrix(1,0,0,-1,-89.92105,720.8684)" d="M270.3 688.26H289.25999V700.44H270.3Z" fill="#ffffff" fill-rule="evenodd"/>
<path transform="matrix(1,0,0,-1,-89.92105,720.8684)" d="M275.7 688.26H283.86003V700.44107H275.7Z" fill="#ffffff"/>
<g clip-path="url(#clip_48)">
<text xml:space="preserve" transform="matrix(1 0 -0 1 -89.92105 720.8684)" font-size="10.02" font-family="Calibri"><tspan y="-690.96" x="277.26">6</tspan></text>
</g>
<g clip-path="url(#clip_49)">
<text xml:space="preserve" transform="matrix(1 0 -0 1 -89.92105 720.8684)" font-size="10.02" font-family="Calibri"><tspan y="-690.96" x="282.3"> </tspan></text>
</g>
<path transform="matrix(1,0,0,-1,-89.92105,720.8684)" d="M289.26 688.26H300.36003V700.44H289.26Z" fill="#ffffff" fill-rule="evenodd"/>
<path transform="matrix(1,0,0,-1,-89.92105,720.8684)" d="M294.66 688.26H294.96V700.44107H294.66Z" fill="#ffffff"/>
<g clip-path="url(#clip_50)">
<text xml:space="preserve" transform="matrix(1 0 -0 1 -89.92105 720.8684)" font-size="10.02" font-family="Calibri"><tspan y="-690.96" x="294.78"> </tspan></text>
</g>
<path transform="matrix(1,0,0,-1,-89.92105,720.8684)" d="M300.36 688.26H319.31999V700.44H300.36Z" fill="#ffffff" fill-rule="evenodd"/>
<path transform="matrix(1,0,0,-1,-89.92105,720.8684)" d="M305.76 688.26H313.92V700.44107H305.76Z" fill="#ffffff"/>
<g clip-path="url(#clip_51)">
<text xml:space="preserve" transform="matrix(1 0 -0 1 -89.92105 720.8684)" font-size="10.02" font-family="Calibri"><tspan y="-690.96" x="307.32">7</tspan></text>
</g>
<g clip-path="url(#clip_52)">
<text xml:space="preserve" transform="matrix(1 0 -0 1 -89.92105 720.8684)" font-size="10.02" font-family="Calibri"><tspan y="-690.96" x="312.36"> </tspan></text>
</g>
<path transform="matrix(1,0,0,-1,-89.92105,720.8684)" d="M319.32 688.26H330.42V700.44H319.32Z" fill="#ffffff" fill-rule="evenodd"/>
<path transform="matrix(1,0,0,-1,-89.92105,720.8684)" d="M324.72 688.26H325.02V700.44107H324.72Z" fill="#ffffff"/>
<g clip-path="url(#clip_53)">
<text xml:space="preserve" transform="matrix(1 0 -0 1 -89.92105 720.8684)" font-size="10.02" font-family="Calibri"><tspan y="-690.96" x="324.84"> </tspan></text>
</g>
<path transform="matrix(1,0,0,-1,-89.92105,720.8684)" d="M330.42 688.26H349.32V700.44H330.42Z" fill="#ffffff" fill-rule="evenodd"/>
<path transform="matrix(1,0,0,-1,-89.92105,720.8684)" d="M335.82 688.26H343.92V700.44107H335.82Z" fill="#ffffff"/>
<g clip-path="url(#clip_54)">
<text xml:space="preserve" transform="matrix(1 0 -0 1 -89.92105 720.8684)" font-size="10.02" font-family="Calibri"><tspan y="-690.96" x="337.38">8</tspan></text>
</g>
<g clip-path="url(#clip_55)">
<text xml:space="preserve" transform="matrix(1 0 -0 1 -89.92105 720.8684)" font-size="10.02" font-family="Calibri"><tspan y="-690.96" x="342.42"> </tspan></text>
</g>
<path transform="matrix(1,0,0,-1,-89.92105,720.8684)" d="M349.38 688.26H360.48V700.44H349.38Z" fill="#ffffff" fill-rule="evenodd"/>
<path transform="matrix(1,0,0,-1,-89.92105,720.8684)" d="M354.78 688.26H355.08V700.44107H354.78Z" fill="#ffffff"/>
<g clip-path="url(#clip_56)">
<text xml:space="preserve" transform="matrix(1 0 -0 1 -89.92105 720.8684)" font-size="10.02" font-family="Calibri"><tspan y="-690.96" x="354.9"> </tspan></text>
</g>
<path transform="matrix(1,0,0,-1,-89.92105,720.8684)" d="M360.42 688.26H379.38V700.44H360.42Z" fill="#ffffff" fill-rule="evenodd"/>
<path transform="matrix(1,0,0,-1,-89.92105,720.8684)" d="M365.82 688.26H373.979V700.44107H365.82Z" fill="#ffffff"/>
<g clip-path="url(#clip_57)">
<text xml:space="preserve" transform="matrix(1 0 -0 1 -89.92105 720.8684)" font-size="10.02" font-family="Calibri"><tspan y="-690.96" x="367.38">9</tspan></text>
</g>
<g clip-path="url(#clip_58)">
<text xml:space="preserve" transform="matrix(1 0 -0 1 -89.92105 720.8684)" font-size="10.02" font-family="Calibri"><tspan y="-690.96" x="372.42"> </tspan></text>
</g>
<text xml:space="preserve" transform="matrix(1 0 -0 1 -89.92105 720.8684)" font-size="10.98" font-family="Calibri"><tspan y="-677.76" x="90"> </tspan></text>
<text xml:space="preserve" transform="matrix(1 0 -0 1 -89.92105 720.8684)" font-size="10.98" font-family="Calibri"><tspan y="-655.26199" x="90 234.00269">  </tspan></text>
</g>
</svg>
