<svg xmlns="http://www.w3.org/2000/svg" xmlns:xlink="http://www.w3.org/1999/xlink" version="1.1" width="277.8158pt" height="311.36845pt" viewBox="0 0 277.8158 311.36845">
<defs>
<clipPath id="clip_0">
<path transform="matrix(1,0,0,-1,-56.36842,734.2895)" d="M56.36842 422.92106H334.1842V734.2895H56.36842Z" fill-rule="evenodd"/>
</clipPath>
<clipPath id="clip_1">
<path transform="matrix(1,0,0,-1,-56.36842,734.2895)" d="M0 0H612V792H0Z" fill-rule="evenodd"/>
</clipPath>
<clipPath id="clip_2">
<path transform="matrix(1,0,0,-1,-56.36842,734.2895)" d="M0 0H612V792H0Z" fill-rule="evenodd"/>
</clipPath>
<clipPath id="clip_3">
<path transform="matrix(1,0,0,-1,-56.36842,734.2895)" d="M0 0H612V792H0Z" fill-rule="evenodd"/>
</clipPath>
<clipPath id="clip_4">
<path transform="matrix(1,0,0,-1,-56.36842,734.2895)" d="M0 0H612V792H0Z" fill-rule="evenodd"/>
</clipPath>
<clipPath id="clip_5">
<path transform="matrix(1,0,0,-1,-56.36842,734.2895)" d="M0 0H612V792H0Z" fill-rule="evenodd"/>
</clipPath>
<clipPath id="clip_6">
<path transform="matrix(1,0,0,-1,-56.36842,734.2895)" d="M0 0H612V792H0Z" fill-rule="evenodd"/>
</clipPath>
<clipPath id="clip_7">
<path transform="matrix(1,0,0,-1,-56.36842,734.2895)" d="M0 0H612V792H0Z" fill-rule="evenodd"/>
</clipPath>
<clipPath id="clip_8">
<path transform="matrix(1,0,0,-1,-56.36842,734.2895)" d="M157.1 422.5H303.2V734.22H157.1Z" fill-rule="evenodd"/>
</clipPath>
<clipPath id="clip_9">
<path transform="matrix(1,0,0,-1,-56.36842,734.2895)" d="M164.66 713.52H295.64V733.74H164.66Z" fill-rule="evenodd"/>
</clipPath>
<clipPath id="clip_10">
<path transform="matrix(1,0,0,-1,-56.36842,734.2895)" d="M164.66 692.76H295.64V712.98H164.66Z" fill-rule="evenodd"/>
</clipPath>
<clipPath id="clip_11">
<path transform="matrix(1,0,0,-1,-56.36842,734.2895)" d="M157.1 422.5H303.2V734.22H157.1Z" fill-rule="evenodd"/>
</clipPath>
<clipPath id="clip_12">
<path transform="matrix(1,0,0,-1,-56.36842,734.2895)" d="M164.66 672H295.64V692.22H164.66Z" fill-rule="evenodd"/>
</clipPath>
<clipPath id="clip_13">
<path transform="matrix(1,0,0,-1,-56.36842,734.2895)" d="M157.1 422.5H303.2V734.22H157.1Z" fill-rule="evenodd"/>
</clipPath>
<clipPath id="clip_14">
<path transform="matrix(1,0,0,-1,-56.36842,734.2895)" d="M164.66 651.22H295.64V671.51998H164.66Z" fill-rule="evenodd"/>
</clipPath>
<clipPath id="clip_15">
<path transform="matrix(1,0,0,-1,-56.36842,734.2895)" d="M164.66 651.22H295.64V671.51998H164.66Z" fill-rule="evenodd"/>
</clipPath>
<clipPath id="clip_16">
<path transform="matrix(1,0,0,-1,-56.36842,734.2895)" d="M164.66 651.22H295.64V671.51998H164.66Z" fill-rule="evenodd"/>
</clipPath>
<clipPath id="clip_17">
<path transform="matrix(1,0,0,-1,-56.36842,734.2895)" d="M164.66 630.46H295.64V650.74008H164.66Z" fill-rule="evenodd"/>
</clipPath>
<clipPath id="clip_18">
<path transform="matrix(1,0,0,-1,-56.36842,734.2895)" d="M164.66 609.7H295.64V629.98007H164.66Z" fill-rule="evenodd"/>
</clipPath>
<clipPath id="clip_19">
<path transform="matrix(1,0,0,-1,-56.36842,734.2895)" d="M164.66 589H295.64V609.22H164.66Z" fill-rule="evenodd"/>
</clipPath>
<clipPath id="clip_20">
<path transform="matrix(1,0,0,-1,-56.36842,734.2895)" d="M164.66 568.24H295.64V588.45999H164.66Z" fill-rule="evenodd"/>
</clipPath>
<clipPath id="clip_21">
<path transform="matrix(1,0,0,-1,-56.36842,734.2895)" d="M164.66 547.48H295.64V567.69998H164.66Z" fill-rule="evenodd"/>
</clipPath>
<clipPath id="clip_22">
<path transform="matrix(1,0,0,-1,-56.36842,734.2895)" d="M157.1 422.5H303.2V734.22H157.1Z" fill-rule="evenodd"/>
</clipPath>
<clipPath id="clip_23">
<path transform="matrix(1,0,0,-1,-56.36842,734.2895)" d="M164.66 526.72H295.64V547H164.66Z" fill-rule="evenodd"/>
</clipPath>
<clipPath id="clip_24">
<path transform="matrix(1,0,0,-1,-56.36842,734.2895)" d="M164.66 505.96H295.64V526.24H164.66Z" fill-rule="evenodd"/>
</clipPath>
<clipPath id="clip_25">
<path transform="matrix(1,0,0,-1,-56.36842,734.2895)" d="M164.66 485.2H295.64V505.48H164.66Z" fill-rule="evenodd"/>
</clipPath>
<clipPath id="clip_26">
<path transform="matrix(1,0,0,-1,-56.36842,734.2895)" d="M164.66 464.5H295.64V484.72H164.66Z" fill-rule="evenodd"/>
</clipPath>
<clipPath id="clip_27">
<path transform="matrix(1,0,0,-1,-56.36842,734.2895)" d="M164.66 443.74H295.64V463.96H164.66Z" fill-rule="evenodd"/>
</clipPath>
<clipPath id="clip_28">
<path transform="matrix(1,0,0,-1,-56.36842,734.2895)" d="M164.66 422.98H295.64V443.2H164.66Z" fill-rule="evenodd"/>
</clipPath>
<clipPath id="clip_29">
<path transform="matrix(1,0,0,-1,-56.36842,734.2895)" d="M164.66 422.98H295.64V443.2H164.66Z" fill-rule="evenodd"/>
</clipPath>
</defs>
<g>
<g clip-path="url(#clip_0)">
<g clip-path="url(#clip_1)">
<text xml:space="preserve" transform="matrix(1 0 -0 1 -56.36842 734.2895)" font-size="12" font-family="Garamond"><tspan y="-704.64" x="102.02 105.02 108.02">   </tspan></text>
</g>
<g clip-path="url(#clip_2)">
<text xml:space="preserve" transform="matrix(1 0 -0 1 -56.36842 734.2895)" font-size="12" font-family="Garamond" font-weight="bold"><tspan y="-704.64" x="111.5 117.62">SP</tspan></text>
</g>
<g clip-path="url(#clip_3)">
<text xml:space="preserve" transform="matrix(1 0 -0 1 -56.36842 734.2895)" font-size="12" font-family="Garamond"><tspan y="-704.64" x="125.48"> </tspan></text>
</g>
<g clip-path="url(#clip_4)">
<path transform="matrix(1,0,0,-1,-56.36842,734.2895)" d="M111.02 714.96H111.5V715.44H111.02Z" fill-rule="evenodd"/>
<path transform="matrix(1,0,0,-1,-56.36842,734.2895)" d="M111.02 714.96H111.5V715.44H111.02Z" fill-rule="evenodd"/>
<path transform="matrix(1,0,0,-1,-56.36842,734.2895)" d="M111.5 714.96H125V715.44H111.5Z" fill-rule="evenodd"/>
<path transform="matrix(1,0,0,-1,-56.36842,734.2895)" d="M125 714.96H125.48V715.44H125Z" fill-rule="evenodd"/>
<path transform="matrix(1,0,0,-1,-56.36842,734.2895)" d="M125 714.96H125.48V715.44H125Z" fill-rule="evenodd"/>
<path transform="matrix(1,0,0,-1,-56.36842,734.2895)" d="M111.02 701.46H111.5V714.96H111.02Z" fill-rule="evenodd"/>
<path transform="matrix(1,0,0,-1,-56.36842,734.2895)" d="M125 701.46H125.48V714.96H125Z" fill-rule="evenodd"/>
<path transform="matrix(1,0,0,-1,-56.36842,734.2895)" d="M111.02 700.98H111.5V701.45999H111.02Z" fill-rule="evenodd"/>
<path transform="matrix(1,0,0,-1,-56.36842,734.2895)" d="M111.02 700.98H111.5V701.45999H111.02Z" fill-rule="evenodd"/>
<path transform="matrix(1,0,0,-1,-56.36842,734.2895)" d="M111.5 700.98H125V701.45999H111.5Z" fill-rule="evenodd"/>
<path transform="matrix(1,0,0,-1,-56.36842,734.2895)" d="M125 700.98H125.48V701.45999H125Z" fill-rule="evenodd"/>
<path transform="matrix(1,0,0,-1,-56.36842,734.2895)" d="M125 700.98H125.48V701.45999H125Z" fill-rule="evenodd"/>
</g>
<g clip-path="url(#clip_5)">
<text xml:space="preserve" transform="matrix(1 0 -0 1 -56.36842 734.2895)" font-size="12" font-family="Garamond" font-weight="bold"><tspan y="-570.4" x="36 39 42 45 48 51 54">       </tspan></text>
</g>
<g clip-path="url(#clip_6)">
<text xml:space="preserve" transform="matrix(1 0 -0 1 -56.36842 734.2895)" font-size="12" font-family="Garamond" font-weight="bold"><tspan y="-570.4" x="57 63.120004 70.5 78.504 81.504 89.376 98.748 107.124 113.124 121.428 129.3 137.38802">SP+ ADR_TAB2</tspan></text>
</g>
<g clip-path="url(#clip_7)">
<text xml:space="preserve" transform="matrix(1 0 -0 1 -56.36842 734.2895)" font-size="12" font-family="Garamond" font-weight="bold"><tspan y="-570.4" x="143.06"> </tspan></text>
</g>
<g clip-path="url(#clip_8)">
<g clip-path="url(#clip_9)">
</g>
<path transform="matrix(1,0,0,-1,-56.36842,734.2895)" d="M164.18 733.74H164.65999V734.22H164.18Z" fill-rule="evenodd"/>
<path transform="matrix(1,0,0,-1,-56.36842,734.2895)" d="M164.18 733.74H164.65999V734.22H164.18Z" fill-rule="evenodd"/>
<path transform="matrix(1,0,0,-1,-56.36842,734.2895)" d="M164.66 733.74H295.7V734.22H164.66Z" fill-rule="evenodd"/>
<path transform="matrix(1,0,0,-1,-56.36842,734.2895)" d="M295.7 733.74H296.18003V734.22H295.7Z" fill-rule="evenodd"/>
<path transform="matrix(1,0,0,-1,-56.36842,734.2895)" d="M295.7 733.74H296.18003V734.22H295.7Z" fill-rule="evenodd"/>
<path transform="matrix(1,0,0,-1,-56.36842,734.2895)" d="M164.18 713.52H164.65999V733.74H164.18Z" fill-rule="evenodd"/>
<path transform="matrix(1,0,0,-1,-56.36842,734.2895)" d="M295.7 713.52H296.18003V733.74H295.7Z" fill-rule="evenodd"/>
<g clip-path="url(#clip_10)">
</g>
</g>
<text xml:space="preserve" transform="matrix(1 0 -0 1 -56.36842 734.2895)" font-size="12" font-family="Garamond"><tspan y="-702.66" x="169.82 177.944 183.944 187.94 192.944 197.324 201.70401 206.70801 209.651 215.651 221.531 224.531 228.035 232.907 239.027 241.775 246.77899 251.65099 257.53099">Adresse du tableau </tspan></text>
<g clip-path="url(#clip_11)">
<path transform="matrix(1,0,0,-1,-56.36842,734.2895)" d="M164.18 713.04H164.65999V713.51998H164.18Z" fill-rule="evenodd"/>
<path transform="matrix(1,0,0,-1,-56.36842,734.2895)" d="M164.66 713.04H295.7V713.51998H164.66Z" fill-rule="evenodd"/>
<path transform="matrix(1,0,0,-1,-56.36842,734.2895)" d="M295.7 713.04H296.18003V713.51998H295.7Z" fill-rule="evenodd"/>
<path transform="matrix(1,0,0,-1,-56.36842,734.2895)" d="M164.18 692.76H164.65999V713.04006H164.18Z" fill-rule="evenodd"/>
<path transform="matrix(1,0,0,-1,-56.36842,734.2895)" d="M295.7 692.76H296.18003V713.04006H295.7Z" fill-rule="evenodd"/>
<g clip-path="url(#clip_12)">
</g>
</g>
<text xml:space="preserve" transform="matrix(1 0 -0 1 -56.36842 734.2895)" font-size="12" font-family="Garamond"><tspan y="-681.9" x="169.82 177.20001 182.072 184.82 187.56801 190.31601 195.32 198.32 204.32 210.20001 213.20001 216.70401 221.576 227.696 230.444 235.448 240.31999 246.2">Taille du tableau </tspan></text>
<g clip-path="url(#clip_13)">
<path transform="matrix(1,0,0,-1,-56.36842,734.2895)" d="M164.18 692.28H164.65999V692.76H164.18Z" fill-rule="evenodd"/>
<path transform="matrix(1,0,0,-1,-56.36842,734.2895)" d="M164.66 692.28H295.7V692.76H164.66Z" fill-rule="evenodd"/>
<path transform="matrix(1,0,0,-1,-56.36842,734.2895)" d="M295.7 692.28H296.18003V692.76H295.7Z" fill-rule="evenodd"/>
<path transform="matrix(1,0,0,-1,-56.36842,734.2895)" d="M164.18 672H164.65999V692.28H164.18Z" fill-rule="evenodd"/>
<path transform="matrix(1,0,0,-1,-56.36842,734.2895)" d="M295.7 672H296.18003V692.28H295.7Z" fill-rule="evenodd"/>
<g clip-path="url(#clip_14)">
<g clip-path="url(#clip_15)">
<text xml:space="preserve" transform="matrix(1 0 -0 1 -56.36842 734.2895)" font-size="12" font-family="Garamond"><tspan y="-661.18" x="169.82 175.44802 178.44802 183.45201 188.324 192.70401 197.66 202.04001 205.04001 211.16 217.28 223.16 227.156 230.156 235.80802 241.43602 244.43602 250.55602 255.56002 259.028 264.032 267.488">5 cases pour 10 octets</tspan></text>
</g>
<g clip-path="url(#clip_16)">
<text xml:space="preserve" transform="matrix(1 0 -0 1 -56.36842 734.2895)" font-size="12" font-family="Garamond"><tspan y="-661.18" x="271.94"> </tspan></text>
</g>
</g>
<path transform="matrix(1,0,0,-1,-56.36842,734.2895)" d="M164.18 671.52H164.65999V672H164.18Z" fill-rule="evenodd"/>
<path transform="matrix(1,0,0,-1,-56.36842,734.2895)" d="M164.66 671.52H295.7V672H164.66Z" fill-rule="evenodd"/>
<path transform="matrix(1,0,0,-1,-56.36842,734.2895)" d="M295.7 671.52H296.18003V672H295.7Z" fill-rule="evenodd"/>
<path transform="matrix(1,0,0,-1,-56.36842,734.2895)" d="M164.18 651.22H164.65999V671.51998H164.18Z" fill-rule="evenodd"/>
<path transform="matrix(1,0,0,-1,-56.36842,734.2895)" d="M295.7 651.22H296.18003V671.51998H295.7Z" fill-rule="evenodd"/>
<g clip-path="url(#clip_17)">
</g>
<path transform="matrix(1,0,0,-1,-56.36842,734.2895)" d="M164.18 650.74H164.65999V651.22H164.18Z" fill-rule="evenodd"/>
<path transform="matrix(1,0,0,-1,-56.36842,734.2895)" d="M164.66 650.74H295.7V651.22H164.66Z" fill-rule="evenodd"/>
<path transform="matrix(1,0,0,-1,-56.36842,734.2895)" d="M295.7 650.74H296.18003V651.22H295.7Z" fill-rule="evenodd"/>
<path transform="matrix(1,0,0,-1,-56.36842,734.2895)" d="M164.18 630.46H164.65999V650.74008H164.18Z" fill-rule="evenodd"/>
<path transform="matrix(1,0,0,-1,-56.36842,734.2895)" d="M295.7 630.46H296.18003V650.74008H295.7Z" fill-rule="evenodd"/>
<g clip-path="url(#clip_18)">
</g>
<path transform="matrix(1,0,0,-1,-56.36842,734.2895)" d="M164.18 629.98H164.65999V630.45999H164.18Z" fill-rule="evenodd"/>
<path transform="matrix(1,0,0,-1,-56.36842,734.2895)" d="M164.66 629.98H295.7V630.45999H164.66Z" fill-rule="evenodd"/>
<path transform="matrix(1,0,0,-1,-56.36842,734.2895)" d="M295.7 629.98H296.18003V630.45999H295.7Z" fill-rule="evenodd"/>
<path transform="matrix(1,0,0,-1,-56.36842,734.2895)" d="M164.18 609.7H164.65999V629.98007H164.18Z" fill-rule="evenodd"/>
<path transform="matrix(1,0,0,-1,-56.36842,734.2895)" d="M295.7 609.7H296.18003V629.98007H295.7Z" fill-rule="evenodd"/>
<g clip-path="url(#clip_19)">
</g>
<path transform="matrix(1,0,0,-1,-56.36842,734.2895)" d="M164.18 609.22H164.65999V609.69998H164.18Z" fill-rule="evenodd"/>
<path transform="matrix(1,0,0,-1,-56.36842,734.2895)" d="M164.66 609.22H295.7V609.69998H164.66Z" fill-rule="evenodd"/>
<path transform="matrix(1,0,0,-1,-56.36842,734.2895)" d="M295.7 609.22H296.18003V609.69998H295.7Z" fill-rule="evenodd"/>
<path transform="matrix(1,0,0,-1,-56.36842,734.2895)" d="M164.18 589H164.65999V609.22H164.18Z" fill-rule="evenodd"/>
<path transform="matrix(1,0,0,-1,-56.36842,734.2895)" d="M295.7 589H296.18003V609.22H295.7Z" fill-rule="evenodd"/>
<g clip-path="url(#clip_20)">
</g>
<path transform="matrix(1,0,0,-1,-56.36842,734.2895)" d="M164.18 588.52H164.65999V589H164.18Z" fill-rule="evenodd"/>
<path transform="matrix(1,0,0,-1,-56.36842,734.2895)" d="M164.66 588.52H295.7V589H164.66Z" fill-rule="evenodd"/>
<path transform="matrix(1,0,0,-1,-56.36842,734.2895)" d="M295.7 588.52H296.18003V589H295.7Z" fill-rule="evenodd"/>
<path transform="matrix(1,0,0,-1,-56.36842,734.2895)" d="M164.18 568.24H164.65999V588.52H164.18Z" fill-rule="evenodd"/>
<path transform="matrix(1,0,0,-1,-56.36842,734.2895)" d="M295.7 568.24H296.18003V588.52H295.7Z" fill-rule="evenodd"/>
<g clip-path="url(#clip_21)">
</g>
</g>
<text xml:space="preserve" transform="matrix(1 0 -0 1 -56.36842 734.2895)" font-size="12" font-family="Garamond"><tspan y="-557.38" x="169.82 175.44802 181.07602 184.09403 189.09803 193.97002 198.35002 203.35402 207.73403 210.74303 216.86302 222.98302 228.86302 232.85903 235.89203 241.52004 247.14804 250.16605 256.28605 261.29005 264.79405 269.79804 273.30204 277.68205">10 cases pour 20 octets </tspan></text>
<g clip-path="url(#clip_22)">
<path transform="matrix(1,0,0,-1,-56.36842,734.2895)" d="M164.18 567.76H164.65999V568.24H164.18Z" fill-rule="evenodd"/>
<path transform="matrix(1,0,0,-1,-56.36842,734.2895)" d="M164.66 567.76H295.7V568.24H164.66Z" fill-rule="evenodd"/>
<path transform="matrix(1,0,0,-1,-56.36842,734.2895)" d="M295.7 567.76H296.18003V568.24H295.7Z" fill-rule="evenodd"/>
<path transform="matrix(1,0,0,-1,-56.36842,734.2895)" d="M164.18 547.48H164.65999V567.76H164.18Z" fill-rule="evenodd"/>
<path transform="matrix(1,0,0,-1,-56.36842,734.2895)" d="M295.7 547.48H296.18003V567.76H295.7Z" fill-rule="evenodd"/>
<g clip-path="url(#clip_23)">
</g>
<path transform="matrix(1,0,0,-1,-56.36842,734.2895)" d="M164.18 547H164.65999V547.48H164.18Z" fill-rule="evenodd"/>
<path transform="matrix(1,0,0,-1,-56.36842,734.2895)" d="M164.66 547H295.7V547.48H164.66Z" fill-rule="evenodd"/>
<path transform="matrix(1,0,0,-1,-56.36842,734.2895)" d="M295.7 547H296.18003V547.48H295.7Z" fill-rule="evenodd"/>
<path transform="matrix(1,0,0,-1,-56.36842,734.2895)" d="M164.18 526.72H164.65999V547H164.18Z" fill-rule="evenodd"/>
<path transform="matrix(1,0,0,-1,-56.36842,734.2895)" d="M295.7 526.72H296.18003V547H295.7Z" fill-rule="evenodd"/>
<g clip-path="url(#clip_24)">
</g>
<path transform="matrix(1,0,0,-1,-56.36842,734.2895)" d="M164.18 526.24H164.65999V526.72H164.18Z" fill-rule="evenodd"/>
<path transform="matrix(1,0,0,-1,-56.36842,734.2895)" d="M164.66 526.24H295.7V526.72H164.66Z" fill-rule="evenodd"/>
<path transform="matrix(1,0,0,-1,-56.36842,734.2895)" d="M295.7 526.24H296.18003V526.72H295.7Z" fill-rule="evenodd"/>
<path transform="matrix(1,0,0,-1,-56.36842,734.2895)" d="M164.18 505.96H164.65999V526.24H164.18Z" fill-rule="evenodd"/>
<path transform="matrix(1,0,0,-1,-56.36842,734.2895)" d="M295.7 505.96H296.18003V526.24H295.7Z" fill-rule="evenodd"/>
<g clip-path="url(#clip_25)">
</g>
<path transform="matrix(1,0,0,-1,-56.36842,734.2895)" d="M164.18 505.48H164.65999V505.96003H164.18Z" fill-rule="evenodd"/>
<path transform="matrix(1,0,0,-1,-56.36842,734.2895)" d="M164.66 505.48H295.7V505.96003H164.66Z" fill-rule="evenodd"/>
<path transform="matrix(1,0,0,-1,-56.36842,734.2895)" d="M295.7 505.48H296.18003V505.96003H295.7Z" fill-rule="evenodd"/>
<path transform="matrix(1,0,0,-1,-56.36842,734.2895)" d="M164.18 485.2H164.65999V505.48H164.18Z" fill-rule="evenodd"/>
<path transform="matrix(1,0,0,-1,-56.36842,734.2895)" d="M295.7 485.2H296.18003V505.48H295.7Z" fill-rule="evenodd"/>
<g clip-path="url(#clip_26)">
</g>
<path transform="matrix(1,0,0,-1,-56.36842,734.2895)" d="M164.18 484.72H164.65999V485.2H164.18Z" fill-rule="evenodd"/>
<path transform="matrix(1,0,0,-1,-56.36842,734.2895)" d="M164.66 484.72H295.7V485.2H164.66Z" fill-rule="evenodd"/>
<path transform="matrix(1,0,0,-1,-56.36842,734.2895)" d="M295.7 484.72H296.18003V485.2H295.7Z" fill-rule="evenodd"/>
<path transform="matrix(1,0,0,-1,-56.36842,734.2895)" d="M164.18 464.5H164.65999V484.72H164.18Z" fill-rule="evenodd"/>
<path transform="matrix(1,0,0,-1,-56.36842,734.2895)" d="M295.7 464.5H296.18003V484.72H295.7Z" fill-rule="evenodd"/>
<g clip-path="url(#clip_27)">
</g>
<path transform="matrix(1,0,0,-1,-56.36842,734.2895)" d="M164.18 464.02H164.65999V464.5H164.18Z" fill-rule="evenodd"/>
<path transform="matrix(1,0,0,-1,-56.36842,734.2895)" d="M164.66 464.02H295.7V464.5H164.66Z" fill-rule="evenodd"/>
<path transform="matrix(1,0,0,-1,-56.36842,734.2895)" d="M295.7 464.02H296.18003V464.5H295.7Z" fill-rule="evenodd"/>
<path transform="matrix(1,0,0,-1,-56.36842,734.2895)" d="M164.18 443.74H164.65999V464.02H164.18Z" fill-rule="evenodd"/>
<path transform="matrix(1,0,0,-1,-56.36842,734.2895)" d="M295.7 443.74H296.18003V464.02H295.7Z" fill-rule="evenodd"/>
<g clip-path="url(#clip_28)">
<g clip-path="url(#clip_29)">
<text xml:space="preserve" transform="matrix(1 0 -0 1 -56.36842 734.2895)" font-size="12" font-family="Garamond"><tspan y="-432.88" x="169.82">&#x2026;</tspan></text>
</g>
</g>
<path transform="matrix(1,0,0,-1,-56.36842,734.2895)" d="M164.18 443.26H164.65999V443.74003H164.18Z" fill-rule="evenodd"/>
<path transform="matrix(1,0,0,-1,-56.36842,734.2895)" d="M164.66 443.26H295.7V443.74003H164.66Z" fill-rule="evenodd"/>
<path transform="matrix(1,0,0,-1,-56.36842,734.2895)" d="M295.7 443.26H296.18003V443.74003H295.7Z" fill-rule="evenodd"/>
<path transform="matrix(1,0,0,-1,-56.36842,734.2895)" d="M164.18 422.98H164.65999V443.26H164.18Z" fill-rule="evenodd"/>
<path transform="matrix(1,0,0,-1,-56.36842,734.2895)" d="M164.18 422.5H164.65999V422.98H164.18Z" fill-rule="evenodd"/>
<path transform="matrix(1,0,0,-1,-56.36842,734.2895)" d="M164.18 422.5H164.65999V422.98H164.18Z" fill-rule="evenodd"/>
<path transform="matrix(1,0,0,-1,-56.36842,734.2895)" d="M164.66 422.5H295.7V422.98H164.66Z" fill-rule="evenodd"/>
<path transform="matrix(1,0,0,-1,-56.36842,734.2895)" d="M295.7 422.98H296.18003V443.26H295.7Z" fill-rule="evenodd"/>
<path transform="matrix(1,0,0,-1,-56.36842,734.2895)" d="M295.7 422.5H296.18003V422.98H295.7Z" fill-rule="evenodd"/>
<path transform="matrix(1,0,0,-1,-56.36842,734.2895)" d="M295.7 422.5H296.18003V422.98H295.7Z" fill-rule="evenodd"/>
</g>
<path transform="matrix(1,0,0,-1,72.35158,28.989502)" d="M0 0 25.51 1.8 25.47 2.3-.04 .5ZM24.71-1.01 30.48 2.4 24.28 4.97Z" fill="#4472c4"/>
<path transform="matrix(1,0,0,-1,90.86157,163.03949)" d="M0 0 8.4-1.13 8.33-1.63-.06-.5ZM7.77 1.72 13.32-2.05 6.97-4.22Z" fill="#4472c4"/>
</g>
</g>
</svg>
