<?xml version="1.0" encoding="UTF-8" standalone="no"?>
<svg
   xmlns:dc="http://purl.org/dc/elements/1.1/"
   xmlns:cc="http://creativecommons.org/ns#"
   xmlns:rdf="http://www.w3.org/1999/02/22-rdf-syntax-ns#"
   xmlns:svg="http://www.w3.org/2000/svg"
   xmlns="http://www.w3.org/2000/svg"
   version="1.1"
   id="svg2"
   xml:space="preserve"
   width="370.42105"
   height="415.1579"
   viewBox="0 0 370.42105 415.1579"><metadata
     id="metadata8"><rdf:RDF><cc:Work
         rdf:about=""><dc:format>image/svg+xml</dc:format><dc:type
           rdf:resource="http://purl.org/dc/dcmitype/StillImage" /></cc:Work></rdf:RDF></metadata><defs
     id="defs6"><clipPath
       clipPathUnits="userSpaceOnUse"
       id="clipPath18"><path
         d="M 9.12e-6,0 H 612.00001 V 792 H 9.12e-6 Z"
         clip-rule="evenodd"
         id="path16" /></clipPath><clipPath
       clipPathUnits="userSpaceOnUse"
       id="clipPath26"><path
         d="M 9.12e-6,0 H 612.00001 V 792 H 9.12e-6 Z"
         clip-rule="evenodd"
         id="path24" /></clipPath><clipPath
       clipPathUnits="userSpaceOnUse"
       id="clipPath34"><path
         d="M 9.12e-6,0 H 612.00001 V 792 H 9.12e-6 Z"
         clip-rule="evenodd"
         id="path32" /></clipPath><clipPath
       clipPathUnits="userSpaceOnUse"
       id="clipPath42"><path
         d="M 9.12e-6,0 H 612.00001 V 792 H 9.12e-6 Z"
         clip-rule="evenodd"
         id="path40" /></clipPath><clipPath
       clipPathUnits="userSpaceOnUse"
       id="clipPath50"><path
         d="M 9.12e-6,0 H 612.00001 V 792 H 9.12e-6 Z"
         clip-rule="evenodd"
         id="path48" /></clipPath><clipPath
       clipPathUnits="userSpaceOnUse"
       id="clipPath58"><path
         d="M 9.12e-6,0 H 612.00001 V 792 H 9.12e-6 Z"
         clip-rule="evenodd"
         id="path56" /></clipPath><clipPath
       clipPathUnits="userSpaceOnUse"
       id="clipPath66"><path
         d="M 9.12e-6,0 H 612.00001 V 792 H 9.12e-6 Z"
         clip-rule="evenodd"
         id="path64" /></clipPath><clipPath
       clipPathUnits="userSpaceOnUse"
       id="clipPath74"><path
         d="M 9.12e-6,0 H 612.00001 V 792 H 9.12e-6 Z"
         clip-rule="evenodd"
         id="path72" /></clipPath><clipPath
       clipPathUnits="userSpaceOnUse"
       id="clipPath82"><path
         d="M 9.12e-6,0 H 612.00001 V 792 H 9.12e-6 Z"
         clip-rule="evenodd"
         id="path80" /></clipPath><clipPath
       clipPathUnits="userSpaceOnUse"
       id="clipPath90"><path
         d="M 9.12e-6,0 H 612.00001 V 792 H 9.12e-6 Z"
         clip-rule="evenodd"
         id="path88" /></clipPath><clipPath
       clipPathUnits="userSpaceOnUse"
       id="clipPath102"><path
         d="M 9.12e-6,0 H 612.00001 V 792 H 9.12e-6 Z"
         clip-rule="evenodd"
         id="path100" /></clipPath><clipPath
       clipPathUnits="userSpaceOnUse"
       id="clipPath110"><path
         d="M 1.8241e-5,0 H 612.00002 V 792 H 1.8241e-5 Z"
         clip-rule="evenodd"
         id="path108" /></clipPath><clipPath
       clipPathUnits="userSpaceOnUse"
       id="clipPath142"><path
         d="M 9.12e-6,0 H 612.00001 V 792 H 9.12e-6 Z"
         clip-rule="evenodd"
         id="path140" /></clipPath><clipPath
       clipPathUnits="userSpaceOnUse"
       id="clipPath150"><path
         d="M 9.12e-6,0 H 612.00001 V 792 H 9.12e-6 Z"
         clip-rule="evenodd"
         id="path148" /></clipPath><clipPath
       clipPathUnits="userSpaceOnUse"
       id="clipPath158"><path
         d="M 9.12e-6,0 H 612.00001 V 792 H 9.12e-6 Z"
         clip-rule="evenodd"
         id="path156" /></clipPath><clipPath
       clipPathUnits="userSpaceOnUse"
       id="clipPath166"><path
         d="M 9.12e-6,0 H 612.00001 V 792 H 9.12e-6 Z"
         clip-rule="evenodd"
         id="path164" /></clipPath><clipPath
       clipPathUnits="userSpaceOnUse"
       id="clipPath174"><path
         d="M 9.12e-6,0 H 612.00001 V 792 H 9.12e-6 Z"
         clip-rule="evenodd"
         id="path172" /></clipPath><clipPath
       clipPathUnits="userSpaceOnUse"
       id="clipPath182"><path
         d="M 9.12e-6,0 H 612.00001 V 792 H 9.12e-6 Z"
         clip-rule="evenodd"
         id="path180" /></clipPath><clipPath
       clipPathUnits="userSpaceOnUse"
       id="clipPath190"><path
         d="M 9.12e-6,0 H 612.00001 V 792 H 9.12e-6 Z"
         clip-rule="evenodd"
         id="path188" /></clipPath><clipPath
       clipPathUnits="userSpaceOnUse"
       id="clipPath202"><path
         d="M 9.12e-6,0 H 612.00001 V 792 H 9.12e-6 Z"
         clip-rule="evenodd"
         id="path200" /></clipPath><clipPath
       clipPathUnits="userSpaceOnUse"
       id="clipPath210"><path
         d="M 9.12e-6,0 H 612.00001 V 792 H 9.12e-6 Z"
         clip-rule="evenodd"
         id="path208" /></clipPath><clipPath
       clipPathUnits="userSpaceOnUse"
       id="clipPath218"><path
         d="M 9.12e-6,0 H 612.00001 V 792 H 9.12e-6 Z"
         clip-rule="evenodd"
         id="path216" /></clipPath><clipPath
       clipPathUnits="userSpaceOnUse"
       id="clipPath226"><path
         d="M 9.12e-6,0 H 612.00001 V 792 H 9.12e-6 Z"
         clip-rule="evenodd"
         id="path224" /></clipPath><clipPath
       clipPathUnits="userSpaceOnUse"
       id="clipPath234"><path
         d="M 9.12e-6,0 H 612.00001 V 792 H 9.12e-6 Z"
         clip-rule="evenodd"
         id="path232" /></clipPath><clipPath
       clipPathUnits="userSpaceOnUse"
       id="clipPath242"><path
         d="M 157.1,422.5 H 303.2 V 734.22 H 157.1 Z"
         clip-rule="evenodd"
         id="path240" /></clipPath><clipPath
       clipPathUnits="userSpaceOnUse"
       id="clipPath250"><path
         d="m 164.66,713.52 h 130.98 v 20.22 H 164.66 Z"
         clip-rule="evenodd"
         id="path248" /></clipPath><clipPath
       clipPathUnits="userSpaceOnUse"
       id="clipPath258"><path
         d="m 164.66,713.52 h 130.98 v 20.22 H 164.66 Z"
         clip-rule="evenodd"
         id="path256" /></clipPath><clipPath
       clipPathUnits="userSpaceOnUse"
       id="clipPath280"><path
         d="m 164.66,692.76 h 130.98 v 20.22 H 164.66 Z"
         clip-rule="evenodd"
         id="path278" /></clipPath><clipPath
       clipPathUnits="userSpaceOnUse"
       id="clipPath288"><path
         d="m 164.66,692.76 h 130.98 v 20.22 H 164.66 Z"
         clip-rule="evenodd"
         id="path286" /></clipPath><clipPath
       clipPathUnits="userSpaceOnUse"
       id="clipPath300"><path
         d="m 164.66,692.76 h 130.98 v 20.22 H 164.66 Z"
         clip-rule="evenodd"
         id="path298" /></clipPath><clipPath
       clipPathUnits="userSpaceOnUse"
       id="clipPath318"><path
         d="m 164.66,672 h 130.98 v 20.22 H 164.66 Z"
         clip-rule="evenodd"
         id="path316" /></clipPath><clipPath
       clipPathUnits="userSpaceOnUse"
       id="clipPath326"><path
         d="m 164.66,672 h 130.98 v 20.22 H 164.66 Z"
         clip-rule="evenodd"
         id="path324" /></clipPath><clipPath
       clipPathUnits="userSpaceOnUse"
       id="clipPath338"><path
         d="m 164.66,672 h 130.98 v 20.22 H 164.66 Z"
         clip-rule="evenodd"
         id="path336" /></clipPath><clipPath
       clipPathUnits="userSpaceOnUse"
       id="clipPath356"><path
         d="m 164.66,651.22 h 130.98 v 20.3 H 164.66 Z"
         clip-rule="evenodd"
         id="path354" /></clipPath><clipPath
       clipPathUnits="userSpaceOnUse"
       id="clipPath364"><path
         d="m 164.66,651.22 h 130.98 v 20.3 H 164.66 Z"
         clip-rule="evenodd"
         id="path362" /></clipPath><clipPath
       clipPathUnits="userSpaceOnUse"
       id="clipPath376"><path
         d="m 164.66,651.22 h 130.98 v 20.3 H 164.66 Z"
         clip-rule="evenodd"
         id="path374" /></clipPath><clipPath
       clipPathUnits="userSpaceOnUse"
       id="clipPath394"><path
         d="m 164.66,630.46 h 130.98 v 20.28 H 164.66 Z"
         clip-rule="evenodd"
         id="path392" /></clipPath><clipPath
       clipPathUnits="userSpaceOnUse"
       id="clipPath402"><path
         d="m 164.66,630.46 h 130.98 v 20.28 H 164.66 Z"
         clip-rule="evenodd"
         id="path400" /></clipPath><clipPath
       clipPathUnits="userSpaceOnUse"
       id="clipPath420"><path
         d="m 164.66,609.7 h 130.98 v 20.28 H 164.66 Z"
         clip-rule="evenodd"
         id="path418" /></clipPath><clipPath
       clipPathUnits="userSpaceOnUse"
       id="clipPath428"><path
         d="m 164.66,609.7 h 130.98 v 20.28 H 164.66 Z"
         clip-rule="evenodd"
         id="path426" /></clipPath><clipPath
       clipPathUnits="userSpaceOnUse"
       id="clipPath446"><path
         d="m 164.66,589 h 130.98 v 20.22 H 164.66 Z"
         clip-rule="evenodd"
         id="path444" /></clipPath><clipPath
       clipPathUnits="userSpaceOnUse"
       id="clipPath454"><path
         d="m 164.66,589 h 130.98 v 20.22 H 164.66 Z"
         clip-rule="evenodd"
         id="path452" /></clipPath><clipPath
       clipPathUnits="userSpaceOnUse"
       id="clipPath472"><path
         d="m 164.66,568.24 h 130.98 v 20.22 H 164.66 Z"
         clip-rule="evenodd"
         id="path470" /></clipPath><clipPath
       clipPathUnits="userSpaceOnUse"
       id="clipPath480"><path
         d="m 164.66,568.24 h 130.98 v 20.22 H 164.66 Z"
         clip-rule="evenodd"
         id="path478" /></clipPath><clipPath
       clipPathUnits="userSpaceOnUse"
       id="clipPath498"><path
         d="M 164.66,547.48 H 295.64 V 567.7 H 164.66 Z"
         clip-rule="evenodd"
         id="path496" /></clipPath><clipPath
       clipPathUnits="userSpaceOnUse"
       id="clipPath506"><path
         d="M 164.66,547.48 H 295.64 V 567.7 H 164.66 Z"
         clip-rule="evenodd"
         id="path504" /></clipPath><clipPath
       clipPathUnits="userSpaceOnUse"
       id="clipPath518"><path
         d="M 164.66,547.48 H 295.64 V 567.7 H 164.66 Z"
         clip-rule="evenodd"
         id="path516" /></clipPath><clipPath
       clipPathUnits="userSpaceOnUse"
       id="clipPath536"><path
         d="M 164.66,526.72 H 295.64 V 547 H 164.66 Z"
         clip-rule="evenodd"
         id="path534" /></clipPath><clipPath
       clipPathUnits="userSpaceOnUse"
       id="clipPath544"><path
         d="M 164.66,526.72 H 295.64 V 547 H 164.66 Z"
         clip-rule="evenodd"
         id="path542" /></clipPath><clipPath
       clipPathUnits="userSpaceOnUse"
       id="clipPath556"><path
         d="M 164.66,526.72 H 295.64 V 547 H 164.66 Z"
         clip-rule="evenodd"
         id="path554" /></clipPath><clipPath
       clipPathUnits="userSpaceOnUse"
       id="clipPath574"><path
         d="m 164.66,505.96 h 130.98 v 20.28 H 164.66 Z"
         clip-rule="evenodd"
         id="path572" /></clipPath><clipPath
       clipPathUnits="userSpaceOnUse"
       id="clipPath582"><path
         d="m 164.66,505.96 h 130.98 v 20.28 H 164.66 Z"
         clip-rule="evenodd"
         id="path580" /></clipPath><clipPath
       clipPathUnits="userSpaceOnUse"
       id="clipPath594"><path
         d="m 164.66,505.96 h 130.98 v 20.28 H 164.66 Z"
         clip-rule="evenodd"
         id="path592" /></clipPath><clipPath
       clipPathUnits="userSpaceOnUse"
       id="clipPath612"><path
         d="m 164.66,485.2 h 130.98 v 20.28 H 164.66 Z"
         clip-rule="evenodd"
         id="path610" /></clipPath><clipPath
       clipPathUnits="userSpaceOnUse"
       id="clipPath620"><path
         d="m 164.66,485.2 h 130.98 v 20.28 H 164.66 Z"
         clip-rule="evenodd"
         id="path618" /></clipPath><clipPath
       clipPathUnits="userSpaceOnUse"
       id="clipPath638"><path
         d="m 164.66,464.5 h 130.98 v 20.22 H 164.66 Z"
         clip-rule="evenodd"
         id="path636" /></clipPath><clipPath
       clipPathUnits="userSpaceOnUse"
       id="clipPath646"><path
         d="m 164.66,464.5 h 130.98 v 20.22 H 164.66 Z"
         clip-rule="evenodd"
         id="path644" /></clipPath><clipPath
       clipPathUnits="userSpaceOnUse"
       id="clipPath664"><path
         d="m 164.66,443.74 h 130.98 v 20.22 H 164.66 Z"
         clip-rule="evenodd"
         id="path662" /></clipPath><clipPath
       clipPathUnits="userSpaceOnUse"
       id="clipPath672"><path
         d="m 164.66,443.74 h 130.98 v 20.22 H 164.66 Z"
         clip-rule="evenodd"
         id="path670" /></clipPath><clipPath
       clipPathUnits="userSpaceOnUse"
       id="clipPath690"><path
         d="M 164.66,422.98 H 295.64 V 443.2 H 164.66 Z"
         clip-rule="evenodd"
         id="path688" /></clipPath><clipPath
       clipPathUnits="userSpaceOnUse"
       id="clipPath698"><path
         d="M 164.66,422.98 H 295.64 V 443.2 H 164.66 Z"
         clip-rule="evenodd"
         id="path696" /></clipPath><clipPath
       clipPathUnits="userSpaceOnUse"
       id="clipPath710"><path
         d="M 164.66,422.98 H 295.64 V 443.2 H 164.66 Z"
         clip-rule="evenodd"
         id="path708" /></clipPath></defs><g
     id="g10"
     transform="matrix(1.3333333,0,0,-1.3333333,-75.157895,979.05263)"><g
       id="g12"><g
         id="g14"
         clip-path="url(#clipPath18)" /></g><g
       id="g20"><g
         id="g22"
         clip-path="url(#clipPath26)" /></g><g
       id="g28"><g
         id="g30"
         clip-path="url(#clipPath34)" /></g><g
       id="g36"><g
         id="g38"
         clip-path="url(#clipPath42)" /></g><g
       id="g44"><g
         id="g46"
         clip-path="url(#clipPath50)" /></g><g
       id="g52"><g
         id="g54"
         clip-path="url(#clipPath58)" /></g><g
       id="g60"><g
         id="g62"
         clip-path="url(#clipPath66)" /></g><g
       id="g68"><g
         id="g70"
         clip-path="url(#clipPath74)" /></g><g
       id="g76"><g
         id="g78"
         clip-path="url(#clipPath82)" /></g><g
       id="g84"><g
         id="g86"
         clip-path="url(#clipPath90)"><text
           transform="matrix(1,0,0,-1,111.5,704.64)"
           style="font-variant:normal;font-weight:bold;font-size:12px;font-family:Garamond;-inkscape-font-specification:Garamond-Bold;writing-mode:lr-tb;fill:#000000;fill-opacity:1;fill-rule:nonzero;stroke:none"
           id="text94"><tspan
             x="0 6.1199999"
             y="0"
             id="tspan92">SP</tspan></text></g></g><g
       id="g96"><g
         id="g98"
         clip-path="url(#clipPath102)" /></g><g
       id="g104"><g
         id="g106"
         clip-path="url(#clipPath110)"><path
           d="m 111.02,714.96 h 0.48 v 0.48 h -0.48 z"
           style="fill:#000000;fill-opacity:1;fill-rule:evenodd;stroke:none"
           id="path112" /><path
           d="m 111.02,714.96 h 0.48 v 0.48 h -0.48 z"
           style="fill:#000000;fill-opacity:1;fill-rule:evenodd;stroke:none"
           id="path114" /><path
           d="M 111.5,714.96 H 125 v 0.48 h -13.5 z"
           style="fill:#000000;fill-opacity:1;fill-rule:evenodd;stroke:none"
           id="path116" /><path
           d="m 125,714.96 h 0.48 v 0.48 H 125 Z"
           style="fill:#000000;fill-opacity:1;fill-rule:evenodd;stroke:none"
           id="path118" /><path
           d="m 125,714.96 h 0.48 v 0.48 H 125 Z"
           style="fill:#000000;fill-opacity:1;fill-rule:evenodd;stroke:none"
           id="path120" /><path
           d="m 111.02,701.46 h 0.48 v 13.5 h -0.48 z"
           style="fill:#000000;fill-opacity:1;fill-rule:evenodd;stroke:none"
           id="path122" /><path
           d="m 125,701.46 h 0.48 v 13.5 H 125 Z"
           style="fill:#000000;fill-opacity:1;fill-rule:evenodd;stroke:none"
           id="path124" /><path
           d="m 111.02,700.98 h 0.48 v 0.48 h -0.48 z"
           style="fill:#000000;fill-opacity:1;fill-rule:evenodd;stroke:none"
           id="path126" /><path
           d="m 111.02,700.98 h 0.48 v 0.48 h -0.48 z"
           style="fill:#000000;fill-opacity:1;fill-rule:evenodd;stroke:none"
           id="path128" /><path
           d="M 111.5,700.98 H 125 v 0.48 h -13.5 z"
           style="fill:#000000;fill-opacity:1;fill-rule:evenodd;stroke:none"
           id="path130" /><path
           d="m 125,700.98 h 0.48 v 0.48 H 125 Z"
           style="fill:#000000;fill-opacity:1;fill-rule:evenodd;stroke:none"
           id="path132" /><path
           d="m 125,700.98 h 0.48 v 0.48 H 125 Z"
           style="fill:#000000;fill-opacity:1;fill-rule:evenodd;stroke:none"
           id="path134" /></g></g><g
       id="g136"><g
         id="g138"
         clip-path="url(#clipPath142)" /></g><g
       id="g144"><g
         id="g146"
         clip-path="url(#clipPath150)" /></g><g
       id="g152"><g
         id="g154"
         clip-path="url(#clipPath158)" /></g><g
       id="g160"><g
         id="g162"
         clip-path="url(#clipPath166)" /></g><g
       id="g168"><g
         id="g170"
         clip-path="url(#clipPath174)" /></g><g
       id="g176"><g
         id="g178"
         clip-path="url(#clipPath182)" /></g><g
       id="g184"><g
         id="g186"
         clip-path="url(#clipPath190)"><text
           transform="matrix(1,0,0,-1,57,570.4)"
           style="font-variant:normal;font-weight:bold;font-size:12px;font-family:Garamond;-inkscape-font-specification:Garamond-Bold;writing-mode:lr-tb;fill:#000000;fill-opacity:1;fill-rule:nonzero;stroke:none"
           id="text194"><tspan
             x="0 6.1199999 13.5 21.504 24.504 32.375999 41.748001 50.124001 56.124001 64.428001 72.300003 80.388"
             y="0"
             id="tspan192">SP+ ADR_TAB2</tspan></text></g></g><g
       id="g196"><g
         id="g198"
         clip-path="url(#clipPath202)" /></g><g
       id="g204"><g
         id="g206"
         clip-path="url(#clipPath210)" /></g><g
       id="g212"><g
         id="g214"
         clip-path="url(#clipPath218)" /></g><g
       id="g220"><g
         id="g222"
         clip-path="url(#clipPath226)" /></g><g
       id="g228"><g
         id="g230"
         clip-path="url(#clipPath234)" /></g><g
       id="g236"><g
         id="g238"
         clip-path="url(#clipPath242)"><g
           id="g244"><g
             id="g246"
             clip-path="url(#clipPath250)"><g
               id="g252"><g
                 id="g254"
                 clip-path="url(#clipPath258)" /></g></g></g><path
           d="m 164.18,733.74 h 0.48001 v 0.48 H 164.18 Z"
           style="fill:#000000;fill-opacity:1;fill-rule:evenodd;stroke:none"
           id="path260" /><path
           d="m 164.18,733.74 h 0.48001 v 0.48 H 164.18 Z"
           style="fill:#000000;fill-opacity:1;fill-rule:evenodd;stroke:none"
           id="path262" /><path
           d="M 164.66,733.74 H 295.7 v 0.48 H 164.66 Z"
           style="fill:#000000;fill-opacity:1;fill-rule:evenodd;stroke:none"
           id="path264" /><path
           d="m 295.7,733.74 h 0.48001 v 0.48 H 295.7 Z"
           style="fill:#000000;fill-opacity:1;fill-rule:evenodd;stroke:none"
           id="path266" /><path
           d="m 295.7,733.74 h 0.48001 v 0.48 H 295.7 Z"
           style="fill:#000000;fill-opacity:1;fill-rule:evenodd;stroke:none"
           id="path268" /><path
           d="m 164.18,713.52 h 0.48001 v 20.22 H 164.18 Z"
           style="fill:#000000;fill-opacity:1;fill-rule:evenodd;stroke:none"
           id="path270" /><path
           d="m 295.7,713.52 h 0.48001 v 20.22 H 295.7 Z"
           style="fill:#000000;fill-opacity:1;fill-rule:evenodd;stroke:none"
           id="path272" /><g
           id="g274"><g
             id="g276"
             clip-path="url(#clipPath280)"><g
               id="g282"><g
                 id="g284"
                 clip-path="url(#clipPath288)"><text
                   transform="matrix(1,0,0,-1,169.82,702.66)"
                   style="font-variant:normal;font-weight:normal;font-size:12px;font-family:Garamond;-inkscape-font-specification:Garamond;writing-mode:lr-tb;fill:#000000;fill-opacity:1;fill-rule:nonzero;stroke:none"
                   id="text292"><tspan
                     x="0 8.1239996 14.124 18.120001 23.124001 27.504 31.884001 36.84 39.84 45.84 51.720001 54.720001 58.248001 63.119999 69.239998 71.987999 76.991997 81.828003 87.708 90.708"
                     y="0"
                     id="tspan290">Adresse du tableau 1</tspan></text></g></g><g
               id="g294"><g
                 id="g296"
                 clip-path="url(#clipPath300)" /></g></g></g><path
           d="m 164.18,713.04 h 0.48001 v 0.48 H 164.18 Z"
           style="fill:#000000;fill-opacity:1;fill-rule:evenodd;stroke:none"
           id="path302" /><path
           d="M 164.66,713.04 H 295.7 v 0.48 H 164.66 Z"
           style="fill:#000000;fill-opacity:1;fill-rule:evenodd;stroke:none"
           id="path304" /><path
           d="m 295.7,713.04 h 0.48001 v 0.48 H 295.7 Z"
           style="fill:#000000;fill-opacity:1;fill-rule:evenodd;stroke:none"
           id="path306" /><path
           d="m 164.18,692.76 h 0.48001 v 20.28 H 164.18 Z"
           style="fill:#000000;fill-opacity:1;fill-rule:evenodd;stroke:none"
           id="path308" /><path
           d="m 295.7,692.76 h 0.48001 v 20.28 H 295.7 Z"
           style="fill:#000000;fill-opacity:1;fill-rule:evenodd;stroke:none"
           id="path310" /><g
           id="g312"><g
             id="g314"
             clip-path="url(#clipPath318)"><g
               id="g320"><g
                 id="g322"
                 clip-path="url(#clipPath326)"><text
                   transform="matrix(1,0,0,-1,169.82,681.9)"
                   style="font-variant:normal;font-weight:normal;font-size:12px;font-family:Garamond;-inkscape-font-specification:Garamond;writing-mode:lr-tb;fill:#000000;fill-opacity:1;fill-rule:nonzero;stroke:none"
                   id="text330"><tspan
                     x="0 7.3800001 12.252 15 17.747999 20.496 25.5 28.5 34.5 40.380001 43.380001 46.883999 51.720001 57.84 60.588001 65.592003 70.463997 76.344002 79.344002"
                     y="0"
                     id="tspan328">Taille du tableau 1</tspan></text></g></g><g
               id="g332"><g
                 id="g334"
                 clip-path="url(#clipPath338)" /></g></g></g><path
           d="m 164.18,692.28 h 0.48001 v 0.48 H 164.18 Z"
           style="fill:#000000;fill-opacity:1;fill-rule:evenodd;stroke:none"
           id="path340" /><path
           d="M 164.66,692.28 H 295.7 v 0.48 H 164.66 Z"
           style="fill:#000000;fill-opacity:1;fill-rule:evenodd;stroke:none"
           id="path342" /><path
           d="m 295.7,692.28 h 0.48001 v 0.48 H 295.7 Z"
           style="fill:#000000;fill-opacity:1;fill-rule:evenodd;stroke:none"
           id="path344" /><path
           d="m 164.18,672 h 0.48001 v 20.28 H 164.18 Z"
           style="fill:#000000;fill-opacity:1;fill-rule:evenodd;stroke:none"
           id="path346" /><path
           d="m 295.7,672 h 0.48001 v 20.28 H 295.7 Z"
           style="fill:#000000;fill-opacity:1;fill-rule:evenodd;stroke:none"
           id="path348" /><g
           id="g350"><g
             id="g352"
             clip-path="url(#clipPath356)"><g
               id="g358"><g
                 id="g360"
                 clip-path="url(#clipPath364)"><text
                   transform="matrix(1,0,0,-1,169.82,661.18)"
                   style="font-variant:normal;font-weight:normal;font-size:12px;font-family:Garamond;-inkscape-font-specification:Garamond;writing-mode:lr-tb;fill:#000000;fill-opacity:1;fill-rule:nonzero;stroke:none"
                   id="text368"><tspan
                     x="0 5.6279998 8.6280003 13.632 18.504 22.884001 27.84 32.220001 35.220001 41.34 47.459999 53.34 57.335999 60.335999 65.987999 71.615997 74.615997 80.736 85.739998 89.208 94.211998 97.667999"
                     y="0"
                     id="tspan366">5 cases pour 10 octets</tspan></text></g></g><g
               id="g370"><g
                 id="g372"
                 clip-path="url(#clipPath376)" /></g></g></g><path
           d="m 164.18,671.52 h 0.48001 V 672 H 164.18 Z"
           style="fill:#000000;fill-opacity:1;fill-rule:evenodd;stroke:none"
           id="path378" /><path
           d="M 164.66,671.52 H 295.7 V 672 H 164.66 Z"
           style="fill:#000000;fill-opacity:1;fill-rule:evenodd;stroke:none"
           id="path380" /><path
           d="m 295.7,671.52 h 0.48001 V 672 H 295.7 Z"
           style="fill:#000000;fill-opacity:1;fill-rule:evenodd;stroke:none"
           id="path382" /><path
           d="m 164.18,651.22 h 0.48001 v 20.3 H 164.18 Z"
           style="fill:#000000;fill-opacity:1;fill-rule:evenodd;stroke:none"
           id="path384" /><path
           d="m 295.7,651.22 h 0.48001 v 20.3 H 295.7 Z"
           style="fill:#000000;fill-opacity:1;fill-rule:evenodd;stroke:none"
           id="path386" /><g
           id="g388"><g
             id="g390"
             clip-path="url(#clipPath394)"><g
               id="g396"><g
                 id="g398"
                 clip-path="url(#clipPath402)" /></g></g></g><path
           d="m 164.18,650.74 h 0.48001 v 0.48 H 164.18 Z"
           style="fill:#000000;fill-opacity:1;fill-rule:evenodd;stroke:none"
           id="path404" /><path
           d="M 164.66,650.74 H 295.7 v 0.48 H 164.66 Z"
           style="fill:#000000;fill-opacity:1;fill-rule:evenodd;stroke:none"
           id="path406" /><path
           d="m 295.7,650.74 h 0.48001 v 0.48 H 295.7 Z"
           style="fill:#000000;fill-opacity:1;fill-rule:evenodd;stroke:none"
           id="path408" /><path
           d="m 164.18,630.46 h 0.48001 v 20.28 H 164.18 Z"
           style="fill:#000000;fill-opacity:1;fill-rule:evenodd;stroke:none"
           id="path410" /><path
           d="m 295.7,630.46 h 0.48001 v 20.28 H 295.7 Z"
           style="fill:#000000;fill-opacity:1;fill-rule:evenodd;stroke:none"
           id="path412" /><g
           id="g414"><g
             id="g416"
             clip-path="url(#clipPath420)"><g
               id="g422"><g
                 id="g424"
                 clip-path="url(#clipPath428)" /></g></g></g><path
           d="m 164.18,629.98 h 0.48001 v 0.48 H 164.18 Z"
           style="fill:#000000;fill-opacity:1;fill-rule:evenodd;stroke:none"
           id="path430" /><path
           d="M 164.66,629.98 H 295.7 v 0.48 H 164.66 Z"
           style="fill:#000000;fill-opacity:1;fill-rule:evenodd;stroke:none"
           id="path432" /><path
           d="m 295.7,629.98 h 0.48001 v 0.48 H 295.7 Z"
           style="fill:#000000;fill-opacity:1;fill-rule:evenodd;stroke:none"
           id="path434" /><path
           d="m 164.18,609.7 h 0.48001 v 20.28 H 164.18 Z"
           style="fill:#000000;fill-opacity:1;fill-rule:evenodd;stroke:none"
           id="path436" /><path
           d="m 295.7,609.7 h 0.48001 v 20.28 H 295.7 Z"
           style="fill:#000000;fill-opacity:1;fill-rule:evenodd;stroke:none"
           id="path438" /><g
           id="g440"><g
             id="g442"
             clip-path="url(#clipPath446)"><g
               id="g448"><g
                 id="g450"
                 clip-path="url(#clipPath454)" /></g></g></g><path
           d="m 164.18,609.22 h 0.48001 v 0.48 H 164.18 Z"
           style="fill:#000000;fill-opacity:1;fill-rule:evenodd;stroke:none"
           id="path456" /><path
           d="M 164.66,609.22 H 295.7 v 0.48 H 164.66 Z"
           style="fill:#000000;fill-opacity:1;fill-rule:evenodd;stroke:none"
           id="path458" /><path
           d="m 295.7,609.22 h 0.48001 v 0.48 H 295.7 Z"
           style="fill:#000000;fill-opacity:1;fill-rule:evenodd;stroke:none"
           id="path460" /><path
           d="m 164.18,589 h 0.48001 v 20.22 H 164.18 Z"
           style="fill:#000000;fill-opacity:1;fill-rule:evenodd;stroke:none"
           id="path462" /><path
           d="m 295.7,589 h 0.48001 v 20.22 H 295.7 Z"
           style="fill:#000000;fill-opacity:1;fill-rule:evenodd;stroke:none"
           id="path464" /><g
           id="g466"><g
             id="g468"
             clip-path="url(#clipPath472)"><g
               id="g474"><g
                 id="g476"
                 clip-path="url(#clipPath480)" /></g></g></g><path
           d="m 164.18,588.52 h 0.48001 V 589 H 164.18 Z"
           style="fill:#000000;fill-opacity:1;fill-rule:evenodd;stroke:none"
           id="path482" /><path
           d="M 164.66,588.52 H 295.7 V 589 H 164.66 Z"
           style="fill:#000000;fill-opacity:1;fill-rule:evenodd;stroke:none"
           id="path484" /><path
           d="m 295.7,588.52 h 0.48001 V 589 H 295.7 Z"
           style="fill:#000000;fill-opacity:1;fill-rule:evenodd;stroke:none"
           id="path486" /><path
           d="m 164.18,568.24 h 0.48001 v 20.28 H 164.18 Z"
           style="fill:#000000;fill-opacity:1;fill-rule:evenodd;stroke:none"
           id="path488" /><path
           d="m 295.7,568.24 h 0.48001 v 20.28 H 295.7 Z"
           style="fill:#000000;fill-opacity:1;fill-rule:evenodd;stroke:none"
           id="path490" /><g
           id="g492"><g
             id="g494"
             clip-path="url(#clipPath498)"><g
               id="g500"><g
                 id="g502"
                 clip-path="url(#clipPath506)"><text
                   transform="matrix(1,0,0,-1,169.82,557.38)"
                   style="font-variant:normal;font-weight:normal;font-size:12px;font-family:Garamond;-inkscape-font-specification:Garamond;writing-mode:lr-tb;fill:#000000;fill-opacity:1;fill-rule:nonzero;stroke:none"
                   id="text510"><tspan
                     x="0 8.1239996 14.124 18.120001 23.124001 27.504 31.884001 36.84 39.84 45.84 51.720001 54.720001 58.248001 63.119999 69.239998 71.987999 76.991997 81.828003 87.708 90.708"
                     y="0"
                     id="tspan508">Adresse du tableau 2</tspan></text></g></g><g
               id="g512"><g
                 id="g514"
                 clip-path="url(#clipPath518)" /></g></g></g><path
           d="m 164.18,567.76 h 0.48001 v 0.48 H 164.18 Z"
           style="fill:#000000;fill-opacity:1;fill-rule:evenodd;stroke:none"
           id="path520" /><path
           d="M 164.66,567.76 H 295.7 v 0.48 H 164.66 Z"
           style="fill:#000000;fill-opacity:1;fill-rule:evenodd;stroke:none"
           id="path522" /><path
           d="m 295.7,567.76 h 0.48001 v 0.48 H 295.7 Z"
           style="fill:#000000;fill-opacity:1;fill-rule:evenodd;stroke:none"
           id="path524" /><path
           d="m 164.18,547.48 h 0.48001 v 20.28 H 164.18 Z"
           style="fill:#000000;fill-opacity:1;fill-rule:evenodd;stroke:none"
           id="path526" /><path
           d="m 295.7,547.48 h 0.48001 v 20.28 H 295.7 Z"
           style="fill:#000000;fill-opacity:1;fill-rule:evenodd;stroke:none"
           id="path528" /><g
           id="g530"><g
             id="g532"
             clip-path="url(#clipPath536)"><g
               id="g538"><g
                 id="g540"
                 clip-path="url(#clipPath544)"><text
                   transform="matrix(1,0,0,-1,169.82,536.68)"
                   style="font-variant:normal;font-weight:normal;font-size:12px;font-family:Garamond;-inkscape-font-specification:Garamond;writing-mode:lr-tb;fill:#000000;fill-opacity:1;fill-rule:nonzero;stroke:none"
                   id="text548"><tspan
                     x="0 7.3800001 12.252 15 17.747999 20.496 25.5 28.5 34.5 40.380001 43.380001 46.883999 51.720001 57.84 60.588001 65.592003 70.463997 76.344002 79.344002"
                     y="0"
                     id="tspan546">Taille du tableau 2</tspan></text></g></g><g
               id="g550"><g
                 id="g552"
                 clip-path="url(#clipPath556)" /></g></g></g><path
           d="m 164.18,547 h 0.48001 v 0.48001 H 164.18 Z"
           style="fill:#000000;fill-opacity:1;fill-rule:evenodd;stroke:none"
           id="path558" /><path
           d="M 164.66,547 H 295.7 v 0.48001 H 164.66 Z"
           style="fill:#000000;fill-opacity:1;fill-rule:evenodd;stroke:none"
           id="path560" /><path
           d="m 295.7,547 h 0.48001 v 0.48001 H 295.7 Z"
           style="fill:#000000;fill-opacity:1;fill-rule:evenodd;stroke:none"
           id="path562" /><path
           d="m 164.18,526.72 h 0.48001 V 547 H 164.18 Z"
           style="fill:#000000;fill-opacity:1;fill-rule:evenodd;stroke:none"
           id="path564" /><path
           d="m 295.7,526.72 h 0.48001 V 547 H 295.7 Z"
           style="fill:#000000;fill-opacity:1;fill-rule:evenodd;stroke:none"
           id="path566" /><g
           id="g568"><g
             id="g570"
             clip-path="url(#clipPath574)"><g
               id="g576"><g
                 id="g578"
                 clip-path="url(#clipPath582)"><text
                   transform="matrix(1,0,0,-1,169.82,515.92)"
                   style="font-variant:normal;font-weight:normal;font-size:12px;font-family:Garamond;-inkscape-font-specification:Garamond;writing-mode:lr-tb;fill:#000000;fill-opacity:1;fill-rule:nonzero;stroke:none"
                   id="text586"><tspan
                     x="0 5.6279998 11.256 14.256 19.26 24.132 28.511999 33.48 37.860001 40.860001 46.98 53.099998 58.98 62.976002 65.975998 71.627998 77.255997 80.255997 86.375999 91.379997 94.848 99.851997 103.308"
                     y="0"
                     id="tspan584">10 cases pour 20 octets</tspan></text></g></g><g
               id="g588"><g
                 id="g590"
                 clip-path="url(#clipPath594)" /></g></g></g><path
           d="m 164.18,526.24 h 0.48001 v 0.47998 H 164.18 Z"
           style="fill:#000000;fill-opacity:1;fill-rule:evenodd;stroke:none"
           id="path596" /><path
           d="M 164.66,526.24 H 295.7 v 0.47998 H 164.66 Z"
           style="fill:#000000;fill-opacity:1;fill-rule:evenodd;stroke:none"
           id="path598" /><path
           d="m 295.7,526.24 h 0.48001 v 0.47998 H 295.7 Z"
           style="fill:#000000;fill-opacity:1;fill-rule:evenodd;stroke:none"
           id="path600" /><path
           d="m 164.18,505.96 h 0.48001 v 20.28 H 164.18 Z"
           style="fill:#000000;fill-opacity:1;fill-rule:evenodd;stroke:none"
           id="path602" /><path
           d="m 295.7,505.96 h 0.48001 v 20.28 H 295.7 Z"
           style="fill:#000000;fill-opacity:1;fill-rule:evenodd;stroke:none"
           id="path604" /><g
           id="g606"><g
             id="g608"
             clip-path="url(#clipPath612)"><g
               id="g614"><g
                 id="g616"
                 clip-path="url(#clipPath620)" /></g></g></g><path
           d="m 164.18,505.48 h 0.48001 v 0.47998 H 164.18 Z"
           style="fill:#000000;fill-opacity:1;fill-rule:evenodd;stroke:none"
           id="path622" /><path
           d="M 164.66,505.48 H 295.7 v 0.47998 H 164.66 Z"
           style="fill:#000000;fill-opacity:1;fill-rule:evenodd;stroke:none"
           id="path624" /><path
           d="m 295.7,505.48 h 0.48001 v 0.47998 H 295.7 Z"
           style="fill:#000000;fill-opacity:1;fill-rule:evenodd;stroke:none"
           id="path626" /><path
           d="m 164.18,485.2 h 0.48001 v 20.28 H 164.18 Z"
           style="fill:#000000;fill-opacity:1;fill-rule:evenodd;stroke:none"
           id="path628" /><path
           d="m 295.7,485.2 h 0.48001 v 20.28 H 295.7 Z"
           style="fill:#000000;fill-opacity:1;fill-rule:evenodd;stroke:none"
           id="path630" /><g
           id="g632"><g
             id="g634"
             clip-path="url(#clipPath638)"><g
               id="g640"><g
                 id="g642"
                 clip-path="url(#clipPath646)" /></g></g></g><path
           d="m 164.18,484.72 h 0.48001 v 0.48001 H 164.18 Z"
           style="fill:#000000;fill-opacity:1;fill-rule:evenodd;stroke:none"
           id="path648" /><path
           d="M 164.66,484.72 H 295.7 v 0.48001 H 164.66 Z"
           style="fill:#000000;fill-opacity:1;fill-rule:evenodd;stroke:none"
           id="path650" /><path
           d="m 295.7,484.72 h 0.48001 v 0.48001 H 295.7 Z"
           style="fill:#000000;fill-opacity:1;fill-rule:evenodd;stroke:none"
           id="path652" /><path
           d="m 164.18,464.5 h 0.48001 v 20.22 H 164.18 Z"
           style="fill:#000000;fill-opacity:1;fill-rule:evenodd;stroke:none"
           id="path654" /><path
           d="m 295.7,464.5 h 0.48001 v 20.22 H 295.7 Z"
           style="fill:#000000;fill-opacity:1;fill-rule:evenodd;stroke:none"
           id="path656" /><g
           id="g658"><g
             id="g660"
             clip-path="url(#clipPath664)"><g
               id="g666"><g
                 id="g668"
                 clip-path="url(#clipPath672)" /></g></g></g><path
           d="m 164.18,464.02 h 0.48001 v 0.47998 H 164.18 Z"
           style="fill:#000000;fill-opacity:1;fill-rule:evenodd;stroke:none"
           id="path674" /><path
           d="M 164.66,464.02 H 295.7 v 0.47998 H 164.66 Z"
           style="fill:#000000;fill-opacity:1;fill-rule:evenodd;stroke:none"
           id="path676" /><path
           d="m 295.7,464.02 h 0.48001 v 0.47998 H 295.7 Z"
           style="fill:#000000;fill-opacity:1;fill-rule:evenodd;stroke:none"
           id="path678" /><path
           d="m 164.18,443.74 h 0.48001 v 20.28 H 164.18 Z"
           style="fill:#000000;fill-opacity:1;fill-rule:evenodd;stroke:none"
           id="path680" /><path
           d="m 295.7,443.74 h 0.48001 v 20.28 H 295.7 Z"
           style="fill:#000000;fill-opacity:1;fill-rule:evenodd;stroke:none"
           id="path682" /><g
           id="g684"><g
             id="g686"
             clip-path="url(#clipPath690)"><g
               id="g692"><g
                 id="g694"
                 clip-path="url(#clipPath698)"><text
                   transform="matrix(1,0,0,-1,169.82,432.88)"
                   style="font-variant:normal;font-weight:normal;font-size:12px;font-family:Garamond;-inkscape-font-specification:Garamond;writing-mode:lr-tb;fill:#000000;fill-opacity:1;fill-rule:nonzero;stroke:none"
                   id="text702"><tspan
                     x="0"
                     y="0"
                     id="tspan700">…</tspan></text></g></g><g
               id="g704"><g
                 id="g706"
                 clip-path="url(#clipPath710)" /></g></g></g><path
           d="m 164.18,443.26 h 0.48001 v 0.48001 H 164.18 Z"
           style="fill:#000000;fill-opacity:1;fill-rule:evenodd;stroke:none"
           id="path712" /><path
           d="M 164.66,443.26 H 295.7 v 0.48001 H 164.66 Z"
           style="fill:#000000;fill-opacity:1;fill-rule:evenodd;stroke:none"
           id="path714" /><path
           d="m 295.7,443.26 h 0.48001 v 0.48001 H 295.7 Z"
           style="fill:#000000;fill-opacity:1;fill-rule:evenodd;stroke:none"
           id="path716" /><path
           d="m 164.18,422.98 h 0.48001 v 20.28 H 164.18 Z"
           style="fill:#000000;fill-opacity:1;fill-rule:evenodd;stroke:none"
           id="path718" /><path
           d="m 164.18,422.5 h 0.48001 v 0.48001 H 164.18 Z"
           style="fill:#000000;fill-opacity:1;fill-rule:evenodd;stroke:none"
           id="path720" /><path
           d="m 164.18,422.5 h 0.48001 v 0.48001 H 164.18 Z"
           style="fill:#000000;fill-opacity:1;fill-rule:evenodd;stroke:none"
           id="path722" /><path
           d="M 164.66,422.5 H 295.7 v 0.48001 H 164.66 Z"
           style="fill:#000000;fill-opacity:1;fill-rule:evenodd;stroke:none"
           id="path724" /><path
           d="m 295.7,422.98 h 0.48001 v 20.28 H 295.7 Z"
           style="fill:#000000;fill-opacity:1;fill-rule:evenodd;stroke:none"
           id="path726" /><path
           d="m 295.7,422.5 h 0.48001 v 0.48001 H 295.7 Z"
           style="fill:#000000;fill-opacity:1;fill-rule:evenodd;stroke:none"
           id="path728" /><path
           d="m 295.7,422.5 h 0.48001 v 0.48001 H 295.7 Z"
           style="fill:#000000;fill-opacity:1;fill-rule:evenodd;stroke:none"
           id="path730" /></g></g><path
       d="m 297,528.1 9.45,9.92 v -4.72 c 12.38,1.25 22.3,4.87 26.38,9.61 6.65,-7.75 -3.99,-16.15 -23.77,-18.76 -0.86,-0.11 -1.73,-0.22 -2.61,-0.3 v -4.73 z"
       style="fill:#4472c4;fill-opacity:1;fill-rule:evenodd;stroke:none"
       id="path732" /><path
       d="m 334.8,538.19 c 0,8.18 -16.92,14.81 -37.8,14.81 v 9.45 c 20.88,0 37.8,-6.63 37.8,-14.81 z"
       style="fill:#375c9e;fill-opacity:1;fill-rule:evenodd;stroke:none"
       id="path734" /><path
       d="m 334.8,538.19 c 0,8.18 -16.92,14.81 -37.8,14.81 v 9.45 c 20.88,0 37.8,-6.63 37.8,-14.81 v -9.45 c 0,-6.76 -11.66,-12.66 -28.35,-14.34 v -4.73 l -9.45,8.98 9.45,9.92 v -4.72 c 12.38,1.25 22.3,4.87 26.38,9.61"
       style="fill:none;stroke:#2f528f;stroke-width:1;stroke-linecap:butt;stroke-linejoin:miter;stroke-miterlimit:10;stroke-dasharray:none;stroke-opacity:1"
       id="path736" /><path
       d="m 296.05,675.25 9.45,9.92 v -4.72 c 12.38,1.25 22.3,4.87 26.38,9.61 6.65,-7.75 -3.99,-16.15 -23.77,-18.76 -0.86,-0.11 -1.73,-0.22 -2.61,-0.3 v -4.73 z"
       style="fill:#4472c4;fill-opacity:1;fill-rule:evenodd;stroke:none"
       id="path738" /><path
       d="m 333.85,685.34 c 0,8.18 -16.92,14.81 -37.8,14.81 v 9.45 c 20.88,0 37.8,-6.63 37.8,-14.81 z"
       style="fill:#375c9e;fill-opacity:1;fill-rule:evenodd;stroke:none"
       id="path740" /><path
       d="m 333.85,685.34 c 0,8.18 -16.92,14.81 -37.8,14.81 v 9.45 c 20.88,0 37.8,-6.63 37.8,-14.81 v -9.45 c 0,-6.76 -11.66,-12.66 -28.35,-14.34 v -4.73 l -9.45,8.98 9.45,9.92 v -4.72 c 12.38,1.25 22.3,4.87 26.38,9.61"
       style="fill:none;stroke:#2f528f;stroke-width:1;stroke-linecap:butt;stroke-linejoin:miter;stroke-miterlimit:10;stroke-dasharray:none;stroke-opacity:1"
       id="path742" /><path
       d="m 128.72,705.3 25.51,1.8 -0.04,0.5 -25.51,-1.8 z m 24.71,-1.01 5.77,3.41 -6.2,2.57 z"
       style="fill:#4472c4;fill-opacity:1;fill-rule:nonzero;stroke:none"
       id="path744" /><path
       d="m 147.23,571.25 8.4,-1.13 -0.07,-0.5 -8.39,1.13 z m 7.77,1.72 5.55,-3.77 -6.35,-2.17 z"
       style="fill:#4472c4;fill-opacity:1;fill-rule:nonzero;stroke:none"
       id="path746" /></g></svg>
