<svg xmlns="http://www.w3.org/2000/svg" xmlns:xlink="http://www.w3.org/1999/xlink" version="1.1" width="612.95498pt" height="275.09126pt" viewBox="0 0 612.95498 275.09126">
  <style>
    svg  { background-color:#ffffff }
</style>
<path transform="matrix(1,0,0,-1,.47750093,1.4442749)" stroke-width=".797" stroke-linecap="butt" stroke-miterlimit="10" stroke-linejoin="miter" fill="none" stroke="#000000" d="M0 0H612"/>
<text xml:space="preserve" transform="matrix(1 0 -0 1 -114.4675 1000.38729)" font-size="9.9626" font-family="CMBX10" font-weight="bold"><tspan y="-989.634" x="122.417 131.0745 134.25257 139.98107 145.70957 150.43184 153.60991 158.06319 164.42929 173.97347 183.03943 192.59357">Algorithme1:</tspan></text>
<text xml:space="preserve" transform="matrix(1 0 -0 1 -114.4675 1000.38729)" font-size="9.9626" font-family="CMR10"><tspan y="-989.634" x="199.108 206.57996 209.34957 214.33086 219.31215 223.21749 225.98709 229.86255 235.40175 243.70059 251.44155 256.98075 264.73167 268.60713 272.51246 278.59959 283.02299 288.00428 296.30314 301.84236 305.7178 310.6991 315.6804">Algorithmedetricomptage</tspan></text>
<path transform="matrix(1,0,0,-1,.47750093,15.081238)" stroke-width=".797" stroke-linecap="butt" stroke-miterlimit="10" stroke-linejoin="miter" fill="none" stroke="#000000" d="M0 0H612"/>
<text xml:space="preserve" transform="matrix(1 0 -0 1 -114.4675 1000.38729)" font-size="9.9626" font-family="CMBX10" font-weight="bold"><tspan y="-975.996" x="129.889 138.67603 144.40453 150.77063 156.89763 157.13674 162.38703 167.63732 175.97602">Donn&#x00b4;ees:</tspan></text>
<text xml:space="preserve" transform="matrix(1 0 -0 1 -114.4675 1000.38729)" font-size="9.9626" font-family="CMR10"><tspan y="-975.996" x="182.477 186.35247 191.33376 200.1905 206.28763 212.64377 217.62506 223.16426 225.93387 230.35727 235.33856 244.20528 249.74448 252.51409 256.93748 262.19773 266.07319 268.84278 273.26618 277.1715">tab:Tableaud&#x2019;entiers</tspan></text>
<text xml:space="preserve" transform="matrix(1 0 -0 1 -114.4675 1000.38729)" font-size="9.9626" font-family="CMBX10" font-weight="bold"><tspan y="-964.04098" x="129.889 138.24762 138.48673 143.73702 148.26004 154.62615 157.80422 162.25749 167.82659 176.09554">R&#x00b4;esultat:</tspan></text>
<text xml:space="preserve" transform="matrix(1 0 -0 1 -114.4675 1000.38729)" font-size="9.9626" font-family="CMR10"><tspan y="-964.04098" x="182.602 188.96811 192.87345 198.9606 204.4998 213.35655 217.23201 222.2133 227.7525 230.52211 234.94551 239.9268 248.79352 254.32276 259.30406 266.5369 269.3065 277.60533 285.6252 285.90415 290.32756 294.203 299.74223 305.00248 310.5417 318.28263 323.82185 331.57276 335.4482 339.35356 345.44068 349.86408 354.84538 363.14424 368.68345 372.5589 377.5402 382.52149">Triuntableauparlam&#x00b4;ethodedetricomptage</tspan></text>
<text xml:space="preserve" transform="matrix(1 0 -0 1 -114.4675 1000.38729)" font-size="6.9738" font-family="CMBX7" font-weight="bold"><tspan y="-952.08596" x="120.394008">1</tspan></text>
<text xml:space="preserve" transform="matrix(1 0 -0 1 -114.4675 1000.38729)" font-size="9.9626" font-family="CMBX10" font-weight="bold"><tspan y="-952.08596" x="129.889 136.14553 141.87403 148.24013 153.33103 157.7843 160.96237 166.69087">Fonction</tspan></text>
<text xml:space="preserve" transform="matrix(1 0 -0 1 -114.4675 1000.38729)" font-size="9.9626" font-family="CMR10"><tspan y="-952.08596" x="176.38101 182.74712 186.65245">Tri</tspan></text>
<path transform="matrix(1,0,0,-1,75.5455,48.102296)" stroke-width=".398" stroke-linecap="butt" stroke-miterlimit="10" stroke-linejoin="miter" fill="none" stroke="#000000" d="M0 0H2.989"/>
<text xml:space="preserve" transform="matrix(1 0 -0 1 -114.4675 1000.38729)" font-size="9.9626" font-family="CMR10"><tspan y="-952.086" x="193.002 197.4254 202.4067 210.70554 216.24474 220.1202 223.99565 228.97695 234.51615">comp(tab)</tspan></text>
<text xml:space="preserve" transform="matrix(1 0 -0 1 -114.4675 1000.38729)" font-size="6.9738" font-family="CMBX7" font-weight="bold"><tspan y="-940.131" x="120.394">2</tspan></text>
<text xml:space="preserve" transform="matrix(1 0 -0 1 -114.4675 1000.38729)" font-size="9.9626" font-family="CMR10"><tspan y="-940.131" x="129.88899 135.70714 140.68843 144.59377 150.13297 154.55637 160.09557 165.63477 171.44297 175.86637 179.7717 182.5413 186.9647 192.5039 196.40924">borneSuperieure</tspan></text>
<text xml:space="preserve" transform="matrix(1 0 -0 1 -114.4675 1000.38729)" font-size="9.9626" font-family="CMSY10" font-style="italic"><tspan y="-940.131" x="204.138">&#x2190;</tspan></text>
<text xml:space="preserve" transform="matrix(1 0 -0 1 -114.4675 1000.38729)" font-size="9.9626" font-family="CMR10"><tspan y="-940.131" x="217.422">0</tspan></text>
<text xml:space="preserve" transform="matrix(1 0 -0 1 -114.4675 1000.38729)" font-size="6.9738" font-family="CMBX7" font-weight="bold"><tspan y="-928.175" x="120.394">3</tspan></text>
<text xml:space="preserve" transform="matrix(1 0 -0 1 -114.4675 1000.38729)" font-size="9.9626" font-family="CMBX10" font-weight="bold"><tspan y="-928.175" x="129.88899 136.5739 142.3024 148.6685">pour</tspan></text>
<text xml:space="preserve" transform="matrix(1 0 -0 1 -114.4675 1000.38729)" font-size="9.9626" font-family="CMTI10" font-style="italic"><tspan y="-928.175" x="156.70499 161.28778 166.37866 171.46955 176.05234 181.40225">chaque</tspan></text>
<text xml:space="preserve" transform="matrix(1 0 -0 1 -114.4675 1000.38729)" font-size="9.9626" font-family="CMMI10" font-style="italic"><tspan y="-928.175" x="189.54799">k</tspan></text>
<text xml:space="preserve" transform="matrix(1 0 -0 1 -114.4675 1000.38729)" font-size="9.9626" font-family="CMTI10" font-style="italic"><tspan y="-928.175" x="198.61299 203.70389 208.79477 214.39376 222.03507 225.34265 230.43354">danstab</tspan></text>
<text xml:space="preserve" transform="matrix(1 0 -0 1 -114.4675 1000.38729)" font-size="9.9626" font-family="CMBX10" font-weight="bold"><tspan y="-928.175" x="238.96999 242.46686 248.03595 251.21402 255.9363">faire</tspan></text>
<path transform="matrix(1,0,0,-1,20.601502,111.664249)" stroke-width=".398" stroke-linecap="butt" stroke-miterlimit="10" stroke-linejoin="miter" fill="none" stroke="#000000" d="M0 0V35.866"/>
<text xml:space="preserve" transform="matrix(1 0 -0 1 -114.4675 1000.38729)" font-size="6.9738" font-family="CMBX7" font-weight="bold"><tspan y="-916.22" x="120.792">4</tspan></text>
<text xml:space="preserve" transform="matrix(1 0 -0 1 -114.4675 1000.38729)" font-size="9.9626" font-family="CMBX10" font-weight="bold"><tspan y="-916.22" x="145.231 149.75403">si</tspan></text>
<text xml:space="preserve" transform="matrix(1 0 -0 1 -114.4675 1000.38729)" font-size="9.9626" font-family="CMMI10" font-style="italic"><tspan y="-916.22" x="156.254 164.52297">k&#x003e;</tspan></text>
<text xml:space="preserve" transform="matrix(1 0 -0 1 -114.4675 1000.38729)" font-size="9.9626" font-family="CMTI10" font-style="italic"><tspan y="-916.22" x="175.834 179.9087 184.9996 189.20383 194.80281 199.3856 204.98459 210.3345 214.9173 219.50009 223.70432 226.76284 231.34563 236.69554 240.39168">borneSuperieure</tspan></text>
<text xml:space="preserve" transform="matrix(1 0 -0 1 -114.4675 1000.38729)" font-size="9.9626" font-family="CMBX10" font-weight="bold"><tspan y="-916.22" x="249.02701 254.5961 257.77418 263.50267 268.2249">alors</tspan></text>
<path transform="matrix(1,0,0,-1,35.944505,99.70825)" stroke-width=".398" stroke-linecap="butt" stroke-miterlimit="10" stroke-linejoin="miter" fill="none" stroke="#000000" d="M0 0V11.955"/>
<text xml:space="preserve" transform="matrix(1 0 -0 1 -114.4675 1000.38729)" font-size="6.9738" font-family="CMBX7" font-weight="bold"><tspan y="-904.265" x="121.191">5</tspan></text>
<text xml:space="preserve" transform="matrix(1 0 -0 1 -114.4675 1000.38729)" font-size="9.9626" font-family="CMR10"><tspan y="-904.265" x="160.574 166.39215 171.37345 175.27878 180.81798 185.24138 190.78058 196.31978 202.12798 206.55138 210.45671 213.22632 217.64972 223.18892 227.09426">borneSuperieure</tspan></text>
<text xml:space="preserve" transform="matrix(1 0 -0 1 -114.4675 1000.38729)" font-size="9.9626" font-family="CMSY10" font-style="italic"><tspan y="-904.265" x="234.823">&#x2190;</tspan></text>
<text xml:space="preserve" transform="matrix(1 0 -0 1 -114.4675 1000.38729)" font-size="9.9626" font-family="CMMI10" font-style="italic"><tspan y="-904.265" x="247.553">k</tspan></text>
<text xml:space="preserve" transform="matrix(1 0 -0 1 -114.4675 1000.38729)" font-size="6.9738" font-family="CMBX7" font-weight="bold"><tspan y="-892.31" x="120.79199">6</tspan></text>
<text xml:space="preserve" transform="matrix(1 0 -0 1 -114.4675 1000.38729)" font-size="9.9626" font-family="CMBX10" font-weight="bold"><tspan y="-892.31" x="145.23099 148.40906 151.59709">fin</tspan></text>
<text xml:space="preserve" transform="matrix(1 0 -0 1 -114.4675 1000.38729)" font-size="6.9738" font-family="CMBX7" font-weight="bold"><tspan y="-879.359" x="120.39399">7</tspan></text>
<text xml:space="preserve" transform="matrix(1 0 -0 1 -114.4675 1000.38729)" font-size="9.9626" font-family="CMBX10" font-weight="bold"><tspan y="-879.359" x="129.88899 133.06707 136.2551">fin</tspan></text>
<text xml:space="preserve" transform="matrix(1 0 -0 1 -114.4675 1000.38729)" font-size="6.9738" font-family="CMBX7" font-weight="bold"><tspan y="-867.403" x="120.39399">8</tspan></text>
<text xml:space="preserve" transform="matrix(1 0 -0 1 -114.4675 1000.38729)" font-size="9.9626" font-family="CMR10"><tspan y="-867.403" x="129.88899 133.76445 138.74575 144.28495 151.47794 156.45923 164.75807 170.29727 174.17273 179.15402 184.13532">tabComptage</tspan></text>
<text xml:space="preserve" transform="matrix(1 0 -0 1 -114.4675 1000.38729)" font-size="9.9626" font-family="CMSY10" font-style="italic"><tspan y="-867.403" x="191.879">&#x2190;</tspan></text>
<text xml:space="preserve" transform="matrix(1 0 -0 1 -114.4675 1000.38729)" font-size="9.9626" font-family="CMR10"><tspan y="-867.403" x="205.162 209.03746 214.01876 219.55796 222.32756 226.75096 231.73226 240.589 246.1282 253.87912 257.75459 262.73588 265.50547 268.27507 271.04466 278.78559 284.60377 289.58506 293.4904 299.0296 303.453 308.99223 314.53144 320.33964 324.76304 328.66838 331.43797 335.86137 341.40058 345.3059 349.7293 357.48023 365.78904 368.55863 374.09785 376.86744 380.7429 383.51249 388.49378 391.26338 394.03297 397.67927 397.9582 405.69914 405.69914 413.99797">tableaudetailleborneSuperieure+1initialis&#x00b4;e`a0</tspan></text>
<text xml:space="preserve" transform="matrix(1 0 -0 1 -114.4675 1000.38729)" font-size="6.9738" font-family="CMBX7" font-weight="bold"><tspan y="-855.448" x="120.394008">9</tspan></text>
<text xml:space="preserve" transform="matrix(1 0 -0 1 -114.4675 1000.38729)" font-size="9.9626" font-family="CMBX10" font-weight="bold"><tspan y="-855.448" x="129.889 136.57392 142.30242 148.66852">pour</tspan></text>
<text xml:space="preserve" transform="matrix(1 0 -0 1 -114.4675 1000.38729)" font-size="9.9626" font-family="CMTI10" font-style="italic"><tspan y="-855.448" x="156.705 161.2878 166.3787 171.46958 176.05237 181.40229">chaque</tspan></text>
<text xml:space="preserve" transform="matrix(1 0 -0 1 -114.4675 1000.38729)" font-size="9.9626" font-family="CMMI10" font-style="italic"><tspan y="-855.448" x="189.548">k</tspan></text>
<text xml:space="preserve" transform="matrix(1 0 -0 1 -114.4675 1000.38729)" font-size="9.9626" font-family="CMTI10" font-style="italic"><tspan y="-855.448" x="198.613 203.70389 208.79477 214.39376 222.03507 225.34265 230.43354">danstab</tspan></text>
<text xml:space="preserve" transform="matrix(1 0 -0 1 -114.4675 1000.38729)" font-size="9.9626" font-family="CMBX10" font-weight="bold"><tspan y="-855.448" x="238.97 242.46688 248.03597 251.21404 255.93631">faire</tspan></text>
<path transform="matrix(1,0,0,-1,20.601502,160.48126)" stroke-width=".398" stroke-linecap="butt" stroke-miterlimit="10" stroke-linejoin="miter" fill="none" stroke="#000000" d="M0 0V11.955"/>
<text xml:space="preserve" transform="matrix(1 0 -0 1 -114.4675 1000.38729)" font-size="6.9738" font-family="CMBX7" font-weight="bold"><tspan y="-843.493" x="116.279 120.791049">10</tspan></text>
<text xml:space="preserve" transform="matrix(1 0 -0 1 -114.4675 1000.38729)" font-size="9.9626" font-family="CMR10"><tspan y="-843.493" x="145.231 149.10646 154.08776 159.62696 166.81995 171.80124 180.10009 185.63928 189.51474 194.49604 199.47733 203.90073">tabComptage[</tspan></text>
<text xml:space="preserve" transform="matrix(1 0 -0 1 -114.4675 1000.38729)" font-size="9.9626" font-family="CMMI10" font-style="italic"><tspan y="-843.493" x="206.668">k</tspan></text>
<text xml:space="preserve" transform="matrix(1 0 -0 1 -114.4675 1000.38729)" font-size="9.9626" font-family="CMR10"><tspan y="-843.493" x="212.168">]</tspan></text>
<text xml:space="preserve" transform="matrix(1 0 -0 1 -114.4675 1000.38729)" font-size="9.9626" font-family="CMSY10" font-style="italic"><tspan y="-843.493" x="218.256">&#x2190;</tspan></text>
<text xml:space="preserve" transform="matrix(1 0 -0 1 -114.4675 1000.38729)" font-size="9.9626" font-family="CMR10"><tspan y="-843.493" x="231.54 235.41545 240.39675 245.93595 253.12894 258.11024 266.4091 271.9483 275.82377 280.80506 285.78636 290.20976">tabComptage[</tspan></text>
<text xml:space="preserve" transform="matrix(1 0 -0 1 -114.4675 1000.38729)" font-size="9.9626" font-family="CMMI10" font-style="italic"><tspan y="-843.493" x="292.97599">k</tspan></text>
<text xml:space="preserve" transform="matrix(1 0 -0 1 -114.4675 1000.38729)" font-size="9.9626" font-family="CMR10"><tspan y="-843.493" x="298.47599 304.5631 315.64155">]+1</tspan></text>
<text xml:space="preserve" transform="matrix(1 0 -0 1 -114.4675 1000.38729)" font-size="6.9738" font-family="CMBX7" font-weight="bold"><tspan y="-831.53799" x="115.87999 120.39204">11</tspan></text>
<text xml:space="preserve" transform="matrix(1 0 -0 1 -114.4675 1000.38729)" font-size="9.9626" font-family="CMBX10" font-weight="bold"><tspan y="-831.53799" x="129.88899 133.06707 136.2551">fin</tspan></text>
<text xml:space="preserve" transform="matrix(1 0 -0 1 -114.4675 1000.38729)" font-size="6.9738" font-family="CMBX7" font-weight="bold"><tspan y="-819.58297" x="115.87999 120.39204">12</tspan></text>
<text xml:space="preserve" transform="matrix(1 0 -0 1 -114.4675 1000.38729)" font-size="9.9626" font-family="CMR10"><tspan y="-819.58297" x="129.88899 134.3124 139.8516">cpt</tspan></text>
<text xml:space="preserve" transform="matrix(1 0 -0 1 -114.4675 1000.38729)" font-size="9.9626" font-family="CMSY10" font-style="italic"><tspan y="-819.58297" x="147.047">&#x2190;</tspan></text>
<text xml:space="preserve" transform="matrix(1 0 -0 1 -114.4675 1000.38729)" font-size="9.9626" font-family="CMR10"><tspan y="-819.58297" x="160.33">0</tspan></text>
<text xml:space="preserve" transform="matrix(1 0 -0 1 -114.4675 1000.38729)" font-size="6.9738" font-family="CMBX7" font-weight="bold"><tspan y="-807.62698" x="115.880008 120.39205">13</tspan></text>
<text xml:space="preserve" transform="matrix(1 0 -0 1 -114.4675 1000.38729)" font-size="9.9626" font-family="CMBX10" font-weight="bold"><tspan y="-807.62698" x="129.889 136.57392 142.30242 148.66852">pour</tspan></text>
<text xml:space="preserve" transform="matrix(1 0 -0 1 -114.4675 1000.38729)" font-size="9.9626" font-family="CMMI10" font-style="italic"><tspan y="-807.62698" x="156.705">i</tspan></text>
<text xml:space="preserve" transform="matrix(1 0 -0 1 -114.4675 1000.38729)" font-size="9.9626" font-family="CMTI10" font-style="italic"><tspan y="-807.62698" x="163.701 168.7919 176.9413 185.5988 185.59882 194.24634 198.32105 203.41193 207.61615 213.21514 217.79793 223.39691 228.74683 233.32962 237.91242 242.11664 245.17516 249.75795 255.10787 258.804">de0`aborneSuperieure</tspan></text>
<text xml:space="preserve" transform="matrix(1 0 -0 1 -114.4675 1000.38729)" font-size="9.9626" font-family="CMBX10" font-weight="bold"><tspan y="-807.62698" x="267.446 270.9429 276.512 279.69007 284.41233">faire</tspan></text>
<path transform="matrix(1,0,0,-1,20.601502,245.16327)" stroke-width=".398" stroke-linecap="butt" stroke-miterlimit="10" stroke-linejoin="miter" fill="none" stroke="#000000" d="M0 0V48.817"/>
<text xml:space="preserve" transform="matrix(1 0 -0 1 -114.4675 1000.38729)" font-size="6.9738" font-family="CMBX7" font-weight="bold"><tspan y="-795.672" x="116.279 120.791049">14</tspan></text>
<text xml:space="preserve" transform="matrix(1 0 -0 1 -114.4675 1000.38729)" font-size="9.9626" font-family="CMBX10" font-weight="bold"><tspan y="-795.672" x="145.231 151.91591 157.64441 164.01052">pour</tspan></text>
<text xml:space="preserve" transform="matrix(1 0 -0 1 -114.4675 1000.38729)" font-size="9.9626" font-family="CMMI10" font-style="italic"><tspan y="-795.672" x="172.047">j</tspan></text>
<text xml:space="preserve" transform="matrix(1 0 -0 1 -114.4675 1000.38729)" font-size="9.9626" font-family="CMTI10" font-style="italic"><tspan y="-795.672" x="180.285 185.37589 193.52529 202.18279 202.17284 210.83034 214.13793 219.22882 223.81162 230.94484 236.03574 244.18515 249.27603 252.58362 257.6745 262.2573 266.8401">de0`atabComptage[</tspan></text>
<text xml:space="preserve" transform="matrix(1 0 -0 1 -114.4675 1000.38729)" font-size="9.9626" font-family="CMMI10" font-style="italic"><tspan y="-795.672" x="269.903">i</tspan></text>
<text xml:space="preserve" transform="matrix(1 0 -0 1 -114.4675 1000.38729)" font-size="9.9626" font-family="CMTI10" font-style="italic"><tspan y="-795.672" x="273.33604">]</tspan></text>
<text xml:space="preserve" transform="matrix(1 0 -0 1 -114.4675 1000.38729)" font-size="9.9626" font-family="CMBX10" font-weight="bold"><tspan y="-795.672" x="280.76103 284.2579 289.827 293.00508 297.72734">faire</tspan></text>
<path transform="matrix(1,0,0,-1,35.944505,232.21228)" stroke-width=".398" stroke-linecap="butt" stroke-miterlimit="10" stroke-linejoin="miter" fill="none" stroke="#000000" d="M0 0V23.91"/>
<text xml:space="preserve" transform="matrix(1 0 -0 1 -114.4675 1000.38729)" font-size="6.9738" font-family="CMBX7" font-weight="bold"><tspan y="-783.717" x="116.677 121.18905">15</tspan></text>
<text xml:space="preserve" transform="matrix(1 0 -0 1 -114.4675 1000.38729)" font-size="9.9626" font-family="CMR10"><tspan y="-783.717" x="160.574 164.44947 169.43076 174.96996 177.73957 182.16297 187.70217 191.57762">tab[cpt]</tspan></text>
<text xml:space="preserve" transform="matrix(1 0 -0 1 -114.4675 1000.38729)" font-size="9.9626" font-family="CMSY10" font-style="italic"><tspan y="-783.717" x="197.65702">&#x2190;</tspan></text>
<text xml:space="preserve" transform="matrix(1 0 -0 1 -114.4675 1000.38729)" font-size="9.9626" font-family="CMMI10" font-style="italic"><tspan y="-783.717" x="210.38701">i</tspan></text>
<text xml:space="preserve" transform="matrix(1 0 -0 1 -114.4675 1000.38729)" font-size="6.9738" font-family="CMBX7" font-weight="bold"><tspan y="-771.76199" x="116.67701 121.18906">16</tspan></text>
<text xml:space="preserve" transform="matrix(1 0 -0 1 -114.4675 1000.38729)" font-size="9.9626" font-family="CMR10"><tspan y="-771.76199" x="160.574 164.9974 170.5366">cpt</tspan></text>
<text xml:space="preserve" transform="matrix(1 0 -0 1 -114.4675 1000.38729)" font-size="9.9626" font-family="CMSY10" font-style="italic"><tspan y="-771.76199" x="177.73201">&#x2190;</tspan></text>
<text xml:space="preserve" transform="matrix(1 0 -0 1 -114.4675 1000.38729)" font-size="9.9626" font-family="CMR10"><tspan y="-771.76199" x="191.01502 195.43842 200.97762 208.17063 219.24904">cpt+1</tspan></text>
<text xml:space="preserve" transform="matrix(1 0 -0 1 -114.4675 1000.38729)" font-size="6.9738" font-family="CMBX7" font-weight="bold"><tspan y="-758.811" x="116.279018 120.79106">17</tspan></text>
<text xml:space="preserve" transform="matrix(1 0 -0 1 -114.4675 1000.38729)" font-size="9.9626" font-family="CMBX10" font-weight="bold"><tspan y="-758.811" x="145.23102 148.40909 151.59712">fin</tspan></text>
<text xml:space="preserve" transform="matrix(1 0 -0 1 -114.4675 1000.38729)" font-size="6.9738" font-family="CMBX7" font-weight="bold"><tspan y="-745.85897" x="115.88002 120.39207">18</tspan></text>
<text xml:space="preserve" transform="matrix(1 0 -0 1 -114.4675 1000.38729)" font-size="9.9626" font-family="CMBX10" font-weight="bold"><tspan y="-745.85897" x="129.88903 133.0671 136.25513">fin</tspan></text>
<text xml:space="preserve" transform="matrix(1 0 -0 1 -114.4675 1000.38729)" font-size="6.9738" font-family="CMBX7" font-weight="bold"><tspan y="-733.90396" x="115.88002 120.39207">19</tspan></text>
<text xml:space="preserve" transform="matrix(1 0 -0 1 -114.4675 1000.38729)" font-size="9.9626" font-family="CMBX10" font-weight="bold"><tspan y="-733.90396" x="129.88903 134.6113 139.86159 144.31487 150.04337 156.40947 161.13175 167.49785 172.74814">retourner</tspan></text>
<text xml:space="preserve" transform="matrix(1 0 -0 1 -114.4675 1000.38729)" font-size="9.9626" font-family="CMR10"><tspan y="-733.90396" x="180.78102 184.65648 189.63777">tab</tspan></text>
<path transform="matrix(1,0,0,-1,.47750093,272.46125)" stroke-width=".797" stroke-linecap="butt" stroke-miterlimit="10" stroke-linejoin="miter" fill="none" stroke="#000000" d="M0 0H612"/>
</svg>
